<svg width="32" height="32" viewBox="0 0 32 32" fill="none" xmlns="http://www.w3.org/2000/svg">
<path d="M7.22605 8.9657C9.29032 6.396 12.4524 4.75 16.0027 4.75C22.2207 4.75 27.2593 9.78776 27.2593 16.0027C27.2593 16.3835 27.2385 16.76 27.1992 17.132L26.3478 16.2806L25.2871 17.3413L28.0091 20.0633L30.7311 17.3413L29.6704 16.2806L28.6943 17.2568C28.7367 16.8453 28.7593 16.4271 28.7593 16.0027C28.7593 8.9589 23.0487 3.25 16.0027 3.25C11.977 3.25 8.39237 5.11866 6.05664 8.0263L7.22605 8.9657Z" fill="white"/>
<path d="M10.8789 14.3054C10.8789 13.6454 11.4147 13.1096 12.0746 13.1096C12.7346 13.1096 13.2704 13.6454 13.2704 14.3054C13.2704 14.6794 13.133 14.9596 12.8662 15.2426C12.5901 15.5356 12.2204 15.7875 11.7518 16.1069L11.6451 16.1796C10.6863 16.8341 9.35436 17.7634 9.35436 19.652V20.415H14.7963V18.8891H11.0285C11.2697 18.3306 11.7926 17.9265 12.5055 17.4398L12.636 17.351C13.0702 17.0563 13.5797 16.7104 13.9767 16.2892C14.4441 15.7931 14.7963 15.1553 14.7963 14.3054C14.7963 12.8027 13.5773 11.5837 12.0746 11.5837C10.5719 11.5837 9.35303 12.8027 9.35303 14.3054V15.0683H10.8789V14.3054Z" fill="white"/>
<path d="M3.99055 11.9366L6.71254 14.6586L5.65188 15.7193L4.80087 14.8683C4.76153 15.2402 4.74072 15.6166 4.74072 15.9973C4.74072 22.2122 9.77939 27.25 15.9974 27.25H16.0027C19.5529 27.25 22.7138 25.6041 24.7795 23.0341L25.9486 23.9738C23.6117 26.8812 20.0285 28.75 16.0027 28.75H15.9974C8.95139 28.75 3.24072 23.0411 3.24072 15.9973C3.24072 15.5727 3.26335 15.1543 3.30583 14.7427L2.32921 15.7193L1.26855 14.6586L3.99055 11.9366Z" fill="white"/>
<path d="M18.2627 11.5851V15.2456L20.4238 15.2688V11.6637H21.9497V15.2852L21.9629 15.2853L21.9497 16.5082V20.4163H20.4238V16.7948L17.8342 16.7669L17.8317 16.7669C17.2295 16.7584 16.7368 16.2695 16.7368 15.6574V11.5851H18.2627Z" fill="white"/>
</svg>
