<svg width="150" height="22" viewBox="0 0 150 22" fill="none" xmlns="http://www.w3.org/2000/svg">
<g clip-path="url(#clip0_937_4586)">
<path d="M6.38506 10.6015C6.31706 10.6105 6.24106 10.5115 6.20806 10.4655C6.19806 10.4525 6.16106 10.3725 6.17006 10.3605C6.17906 10.3485 6.26206 10.3755 6.28306 10.3925C6.34296 10.4416 6.38425 10.5097 6.40006 10.5855C6.40007 10.5896 6.39852 10.5935 6.39573 10.5965C6.39295 10.5994 6.38913 10.6012 6.38506 10.6015ZM4.73106 9.68649C4.68406 9.70349 4.57006 9.57349 4.53806 9.52549C4.47906 9.43749 4.42006 9.33949 4.35806 9.25249C4.2848 9.18059 4.23674 9.08694 4.22106 8.98549C4.22106 8.97049 4.21106 8.93049 4.22106 8.93049C4.28406 8.93049 4.34406 9.04549 4.37606 9.08849C4.40806 9.13149 4.42506 9.15049 4.44606 9.18349C4.46706 9.21649 4.49006 9.28349 4.52206 9.33149C4.55406 9.37949 4.61006 9.43149 4.65206 9.49049C4.67949 9.51787 4.70213 9.54964 4.71906 9.58449C4.72506 9.60549 4.74506 9.68449 4.73206 9.68449M4.26106 9.66849C4.22606 9.66849 4.21106 9.64349 4.18906 9.62749C4.15549 9.6033 4.12817 9.57145 4.10939 9.53457C4.0906 9.4977 4.08089 9.45688 4.08106 9.41549C4.08106 9.40549 4.08106 9.40249 4.09106 9.40249C4.16006 9.40249 4.23006 9.50849 4.25706 9.55749C4.27119 9.58295 4.27907 9.6114 4.28006 9.64049C4.28006 9.65949 4.27206 9.66849 4.26106 9.66849ZM2.69006 9.98549C2.68904 9.99021 2.68656 9.99449 2.68297 9.99772C2.67938 10.001 2.67486 10.003 2.67006 10.0035C2.59506 10.0035 2.57006 9.88949 2.54006 9.83949C2.51006 9.78949 2.48906 9.75049 2.46106 9.70749C2.43852 9.67765 2.41814 9.64624 2.40006 9.61349C2.38459 9.56966 2.36621 9.5269 2.34506 9.48549C2.33206 9.46449 2.31106 9.44749 2.29606 9.42849C2.25436 9.37282 2.2207 9.31155 2.19606 9.24649C2.19006 9.22249 2.18306 9.19749 2.17806 9.17349C2.16006 9.13149 2.14106 9.08549 2.13106 9.04049C2.12282 9.01365 2.1201 8.98542 2.12306 8.95749C2.12306 8.95049 2.12906 8.94549 2.13506 8.94749C2.19206 8.95549 2.24706 9.09549 2.27506 9.14749C2.30306 9.19949 2.35406 9.24749 2.38106 9.30149C2.40806 9.35549 2.41306 9.41749 2.44006 9.46649C2.46706 9.51549 2.49706 9.53449 2.52106 9.57149C2.55009 9.62334 2.57548 9.67713 2.59706 9.73249C2.62406 9.79149 2.66306 9.83749 2.68606 9.89449C2.6965 9.92365 2.69892 9.95508 2.69306 9.98549M2.39806 7.84449C2.38243 7.81715 2.36873 7.78875 2.35706 7.75949C2.34506 7.72749 2.34406 7.69849 2.33106 7.66849L2.19406 7.36849C2.16662 7.31706 2.15712 7.25794 2.16706 7.20049C2.16706 7.19349 2.18506 7.20049 2.19106 7.20049C2.20458 7.21193 2.21727 7.22429 2.22906 7.23749C2.23806 7.25149 2.24006 7.26749 2.25006 7.28149C2.27498 7.31302 2.29739 7.34645 2.31706 7.38149C2.35406 7.46149 2.36306 7.55049 2.40006 7.62749C2.42306 7.67849 2.46306 7.72749 2.48906 7.77449C2.50118 7.80306 2.51121 7.83247 2.51906 7.86249C2.52294 7.88563 2.52495 7.90904 2.52506 7.93249C2.52506 7.95949 2.52506 7.97549 2.51406 7.97649C2.44506 7.97649 2.42406 7.88749 2.39906 7.83849M17.3311 14.4595C17.2441 14.1395 16.3061 14.2775 15.5311 14.2065C14.6159 14.1311 13.7138 13.941 12.8461 13.6405C11.8663 13.3115 10.9142 12.9048 9.99906 12.4245C9.99906 12.4245 9.65406 12.2425 9.61706 12.2245C9.54606 12.1815 9.49006 12.1505 9.41706 12.1065C9.36782 12.0763 9.31709 12.0486 9.26506 12.0235C9.21189 11.9983 9.16103 11.9685 9.11306 11.9345C9.06006 11.9015 8.98806 11.8665 8.93506 11.8345C8.85606 11.7855 8.80806 11.7485 8.73506 11.6955C8.69298 11.6657 8.64924 11.6383 8.60406 11.6135C8.56706 11.5915 8.50406 11.5555 8.46806 11.5335C8.40006 11.4885 8.35606 11.4505 8.28706 11.4025C8.24506 11.3725 8.21406 11.3545 8.16406 11.3235C8.11406 11.2925 8.06406 11.2545 8.02306 11.2235C7.99478 11.2049 7.96772 11.1846 7.94206 11.1625C7.89106 11.1135 7.84206 11.0705 7.78906 11.0285C7.73606 10.9865 7.69506 10.9475 7.64906 10.9115C7.61906 10.8895 7.56706 10.8465 7.53706 10.8245C7.46006 10.7685 7.41106 10.7245 7.33706 10.6715C7.28706 10.6345 7.24606 10.5865 7.19706 10.5495C7.14806 10.5125 7.09106 10.4615 7.03406 10.4205C6.99719 10.3939 6.96273 10.3641 6.93106 10.3315C6.89406 10.2875 6.86006 10.2565 6.82106 10.2135C6.78206 10.1705 6.73806 10.1475 6.70706 10.1135C6.65585 10.0499 6.5967 9.99309 6.53106 9.94449C6.50752 9.92364 6.48609 9.90053 6.46706 9.87549C6.45022 9.8523 6.43184 9.83025 6.41206 9.80949C6.38206 9.77849 6.37006 9.77049 6.35806 9.75649C6.33289 9.73546 6.30885 9.71309 6.28606 9.68949C6.27306 9.67649 6.25106 9.64549 6.22906 9.61649C6.21386 9.59368 6.1975 9.57165 6.18006 9.55049L6.09106 9.45049L6.03106 9.38849C6.01606 9.37249 6.00506 9.35349 5.99206 9.33549C5.98145 9.31755 5.96942 9.3005 5.95606 9.28449C5.93306 9.25949 5.91606 9.26849 5.91106 9.27049C5.90606 9.27249 5.89206 9.30649 5.91106 9.33849C5.93116 9.37304 5.9532 9.40643 5.97706 9.43849L5.98706 9.45149L6.00706 9.48649C6.017 9.50512 6.02802 9.52315 6.04006 9.54049C6.06761 9.57596 6.09768 9.60938 6.13006 9.64049C6.1406 9.6503 6.15061 9.66064 6.16006 9.67149C6.17959 9.69239 6.19701 9.71517 6.21206 9.73949C6.22926 9.76492 6.24796 9.7893 6.26806 9.81249C6.27858 9.82279 6.28797 9.83419 6.29606 9.84649C6.30565 9.85975 6.316 9.87244 6.32706 9.88449L6.37906 9.93549C6.40706 9.96549 6.43806 9.99549 6.46506 10.0195C6.49206 10.0435 6.50906 10.0615 6.53206 10.0835C6.58906 10.1515 6.65206 10.2205 6.70306 10.2835C6.7381 10.3179 6.77703 10.3481 6.81906 10.3735C6.85529 10.4067 6.88721 10.4443 6.91406 10.4855C6.93706 10.5125 6.98606 10.5555 7.01406 10.5855C7.0622 10.6508 7.12023 10.7081 7.18606 10.7555C7.22977 10.7857 7.26884 10.8221 7.30206 10.8635C7.32306 10.8915 7.38806 10.9535 7.41306 10.9845C7.47506 11.0635 7.50306 11.1375 7.49406 11.1395C7.45206 11.1515 7.34906 11.0595 7.28706 11.0205C7.22506 10.9815 7.22806 10.9725 7.18106 10.9365C7.14047 10.9066 7.10266 10.8731 7.06806 10.8365C7.04706 10.8185 6.99106 10.7565 6.97306 10.7365C6.90361 10.6612 6.82727 10.5926 6.74506 10.5315C6.67306 10.4615 6.58306 10.3985 6.51406 10.3315C6.49306 10.3095 6.47206 10.2875 6.45206 10.2635C6.43206 10.2395 6.40006 10.2195 6.37906 10.1955C6.34521 10.1416 6.30637 10.0911 6.26306 10.0445C6.22206 10.0125 6.19206 9.98449 6.15006 9.95349C6.13506 9.94349 6.12206 9.92449 6.10706 9.91249C6.0852 9.89861 6.06535 9.88178 6.04806 9.86249C6.00006 9.80149 5.95306 9.73849 5.90306 9.67649C5.88106 9.65149 5.85006 9.63149 5.83106 9.59649C5.78406 9.53049 5.74506 9.46249 5.69806 9.39649C5.63106 9.31449 5.53106 9.25149 5.46806 9.16449C5.40506 9.07749 5.36206 8.96949 5.30006 8.87549C5.27306 8.83449 5.23106 8.80549 5.20006 8.76649C5.18306 8.74349 5.17406 8.71749 5.15806 8.69249C5.12506 8.64149 5.08606 8.59249 5.05206 8.54449C5.00806 8.47949 4.97906 8.40949 4.93406 8.34449C4.92084 8.31322 4.90442 8.28339 4.88506 8.25549C4.85643 8.21706 4.83005 8.17699 4.80606 8.13549C4.77506 8.08849 4.76106 8.05649 4.73906 8.02349C4.71706 7.99049 4.70306 7.95849 4.68806 7.93649C4.67306 7.91449 4.64206 7.86949 4.63106 7.85249C4.59106 7.79049 4.57906 7.76149 4.53806 7.70449C4.51306 7.66949 4.48406 7.64049 4.46006 7.64949C4.43606 7.65849 4.44906 7.68449 4.45306 7.70049C4.46238 7.72831 4.47514 7.75485 4.49106 7.77949C4.52506 7.84049 4.53706 7.86949 4.57306 7.92449C4.58906 7.95149 4.61806 8.01249 4.64106 8.04449C4.66406 8.07649 4.68806 8.11849 4.70306 8.14449C4.71806 8.17049 4.74506 8.25149 4.77006 8.28449C4.79257 8.31645 4.81294 8.34986 4.83106 8.38449C4.86481 8.44613 4.90291 8.50527 4.94506 8.56149L5.01606 8.69649C5.06406 8.76849 5.12106 8.83549 5.16706 8.90949L5.25206 9.06449C5.28106 9.10649 5.32006 9.14249 5.35206 9.18549C5.38406 9.22849 5.40406 9.29349 5.43806 9.34449C5.47206 9.39549 5.49906 9.42149 5.52506 9.46149C5.57106 9.52949 5.61206 9.59649 5.66006 9.66149C5.68706 9.69749 5.72106 9.72649 5.74706 9.76149C5.77306 9.79649 5.81206 9.86749 5.84706 9.90849C5.88041 9.9424 5.91148 9.97848 5.94006 10.0165C5.99206 10.0805 6.12306 10.2635 6.10006 10.2655C6.02406 10.2765 5.87606 10.1085 5.81506 10.0485C5.76728 10.0092 5.72218 9.96679 5.68006 9.92149C5.63106 9.85449 5.59506 9.78049 5.54506 9.71549C5.52806 9.69149 5.50106 9.67349 5.48306 9.65149C5.45092 9.60656 5.41584 9.5638 5.37806 9.52349C5.36162 9.50933 5.34593 9.49431 5.33106 9.47849C5.27106 9.40149 5.22006 9.31949 5.16206 9.23849C5.13706 9.20649 5.10506 9.17749 5.08106 9.14549C5.05706 9.11349 5.05106 9.09149 5.03506 9.06349C5.01906 9.03549 4.98106 8.99349 4.95806 8.95649C4.93506 8.91949 4.93106 8.90249 4.91106 8.87549C4.87906 8.82749 4.83706 8.78549 4.80506 8.73749C4.77306 8.68949 4.77306 8.64649 4.74706 8.60649C4.68106 8.50649 4.61006 8.40649 4.54706 8.30649C4.53006 8.28049 4.52306 8.25149 4.50806 8.22649C4.45506 8.14349 4.40806 8.05449 4.35406 7.97349C4.33506 7.94349 4.32706 7.90849 4.30806 7.87849C4.28906 7.84849 4.24706 7.81249 4.22306 7.77849C4.20723 7.74932 4.19385 7.71888 4.18306 7.68749C4.16406 7.64449 4.13706 7.60249 4.11506 7.56249C4.10106 7.53749 4.09406 7.51249 4.07906 7.48949C4.01731 7.38955 3.9622 7.28566 3.91406 7.17849C3.88706 7.12249 3.84806 7.07049 3.82206 7.01349C3.79606 6.95649 3.76206 6.88249 3.73106 6.82149C3.71506 6.77949 3.70006 6.73849 3.68606 6.69649C3.65606 6.63149 3.60906 6.57649 3.58006 6.50849C3.55906 6.46249 3.54806 6.42049 3.52906 6.38149C3.51706 6.35849 3.49406 6.33849 3.47806 6.34949C3.46206 6.36049 3.45906 6.37949 3.47006 6.41649C3.49073 6.48048 3.51579 6.54296 3.54506 6.60349C3.58106 6.68149 3.59906 6.76249 3.63506 6.84149C3.65306 6.88549 3.68306 6.92749 3.70306 6.96949C3.73806 7.04449 3.77106 7.12049 3.80306 7.19149C3.82206 7.23349 3.83806 7.27349 3.86006 7.31249C3.87421 7.3338 3.88722 7.35583 3.89906 7.37849C3.93106 7.43149 3.93106 7.48349 3.95606 7.53149C3.98106 7.57949 4.01906 7.62349 4.04206 7.67249C4.15414 7.92079 4.28207 8.16162 4.42506 8.39349C4.46506 8.45649 4.48606 8.53249 4.52506 8.59349C4.56406 8.65449 4.62506 8.70849 4.66506 8.77249C4.70506 8.83649 4.70806 8.89849 4.74006 8.95449C4.78506 9.03949 4.84706 9.11049 4.89906 9.19049C4.91206 9.21249 4.91706 9.23749 4.93106 9.26049C4.94506 9.28349 4.97506 9.32049 4.99506 9.35149C5.01506 9.38249 5.03406 9.44049 5.06306 9.47849C5.09206 9.51649 5.13706 9.55449 5.16306 9.59749C5.18906 9.64049 5.22706 9.70949 5.26306 9.76249C5.29006 9.79849 5.33206 9.82349 5.36306 9.86249C5.40706 9.91949 5.56306 10.1185 5.60206 10.1745C5.69216 10.2745 5.77284 10.3826 5.84306 10.4975C5.86006 10.5325 5.92006 10.6145 5.90806 10.6305C5.87606 10.6515 5.72606 10.4875 5.70006 10.4635C5.63893 10.3964 5.58247 10.3253 5.53106 10.2505C5.51706 10.2345 5.37406 10.0945 5.36206 10.0785C5.35006 10.0625 5.33106 10.0395 5.32306 10.0215C5.28306 9.96149 5.25806 9.88949 5.21606 9.83349C5.19806 9.80949 5.17006 9.79149 5.15306 9.76849C5.12006 9.72449 5.09706 9.67549 5.06406 9.63049C5.01406 9.56049 4.94806 9.49749 4.89606 9.43049C4.84406 9.36349 4.79606 9.26449 4.74406 9.18749C4.71606 9.14949 4.68006 9.11649 4.65306 9.07549C4.64106 9.05849 4.63706 9.04049 4.62506 9.02149C4.60118 8.98986 4.57979 8.95643 4.56106 8.92149C4.54852 8.8905 4.53382 8.86043 4.51706 8.83149C4.45806 8.73949 4.39906 8.64049 4.34006 8.54849C4.31206 8.50649 4.29706 8.46249 4.27206 8.42049C4.22706 8.35249 4.17206 8.29049 4.12706 8.22049C4.08206 8.15049 4.04706 8.03949 3.99306 7.95749C3.95906 7.90349 3.91906 7.85749 3.88506 7.79849C3.85106 7.73949 3.82806 7.67149 3.79406 7.61149C3.76006 7.55149 3.72406 7.51149 3.69406 7.45349C3.66406 7.39549 3.64606 7.33649 3.61806 7.27449C3.60306 7.24249 3.57906 7.20849 3.56506 7.17449C3.55106 7.14049 3.54206 7.09049 3.52206 7.05049C3.47106 6.93749 3.39406 6.82949 3.34106 6.71649C3.30406 6.63649 3.26906 6.55349 3.24106 6.46849C3.22858 6.42204 3.21356 6.3763 3.19606 6.33149C3.14906 6.23149 3.09106 6.11749 3.04606 6.01549C3.02606 5.95949 3.00706 5.90549 2.98706 5.85049C2.98706 5.83549 2.98106 5.82049 2.97506 5.80349C2.95306 5.75449 2.92406 5.70349 2.90506 5.65949C2.88606 5.61549 2.87006 5.54749 2.85206 5.49049C2.77906 5.30849 2.71406 5.10249 2.64506 4.91249C2.63908 4.87509 2.63107 4.83803 2.62106 4.80149C2.58506 4.70149 2.54906 4.60649 2.51506 4.51049C2.49406 4.46149 2.44806 4.47749 2.45806 4.52849C2.47206 4.59449 2.48106 4.61149 2.49306 4.66449C2.49306 4.69249 2.50306 4.71849 2.50906 4.74549C2.51506 4.77249 2.53306 4.81149 2.54206 4.84549C2.56106 4.90349 2.56206 4.96149 2.58106 5.01649C2.61006 5.09449 2.63806 5.17149 2.66406 5.25149C2.67006 5.29149 2.67906 5.33249 2.68706 5.37249C2.69506 5.41249 2.71506 5.44849 2.72806 5.48249C2.76806 5.58249 2.80706 5.68249 2.84106 5.77549C2.85606 5.83149 2.87106 5.88749 2.88406 5.94449C2.89906 5.97549 2.92106 6.00749 2.93406 6.03749C2.94706 6.06749 2.94906 6.09049 2.96106 6.11949C2.98606 6.18249 3.00906 6.24649 3.03806 6.31049C3.06706 6.37449 3.09006 6.41549 3.11106 6.47149C3.12106 6.49949 3.12106 6.52249 3.13106 6.54949C3.19206 6.71549 3.25706 6.89049 3.33106 7.04949C3.34906 7.08849 3.35406 7.12949 3.37206 7.16849C3.39006 7.20749 3.40706 7.23749 3.42206 7.26849L3.44406 7.33249C3.46606 7.37849 3.50406 7.41749 3.52606 7.46349C3.58035 7.58976 3.64525 7.71119 3.72006 7.82649C3.78324 7.9412 3.83515 8.06177 3.87506 8.18649C3.90254 8.24104 3.93396 8.29351 3.96906 8.34349C3.98506 8.37049 3.99506 8.40049 4.00906 8.42849C4.03835 8.48905 4.07176 8.54752 4.10906 8.60349C4.13418 8.64093 4.15403 8.68165 4.16806 8.72449C4.18358 8.77032 4.19464 8.81754 4.20106 8.86549C4.19106 8.87249 4.13106 8.83649 4.11006 8.81349C4.06917 8.77386 4.03535 8.72752 4.01006 8.67649C3.99506 8.64349 3.96506 8.58649 3.94906 8.55449C3.90284 8.47699 3.85174 8.40251 3.79606 8.33149C3.77182 8.28641 3.75012 8.24 3.73106 8.19249C3.69206 8.10749 3.64706 8.02049 3.60506 7.93249C3.58543 7.8981 3.56407 7.86473 3.54106 7.83249C3.51806 7.79849 3.50906 7.76249 3.48706 7.73249C3.43588 7.6561 3.38946 7.57661 3.34806 7.49449C3.32006 7.43449 3.30506 7.37449 3.27806 7.31549C3.26708 7.29684 3.25506 7.27881 3.24206 7.26149C3.22306 7.23149 3.21506 7.19749 3.19806 7.16149C3.18106 7.12549 3.14506 7.07349 3.12406 7.02749C3.08106 6.93549 3.05606 6.83949 3.01406 6.74849C2.99306 6.70549 2.95906 6.66949 2.93906 6.62749C2.90806 6.56249 2.90506 6.48049 2.87406 6.41249C2.79406 6.23249 2.70206 6.04649 2.63406 5.85849C2.62306 5.82649 2.61906 5.79049 2.60906 5.75849C2.57906 5.67649 2.54106 5.60049 2.50906 5.51949C2.49506 5.48249 2.49106 5.44949 2.47806 5.41149C2.46106 5.34949 2.43106 5.29149 2.41506 5.23149C2.41111 5.21223 2.40611 5.1932 2.40006 5.17449C2.37606 5.12249 2.36106 5.06149 2.33706 5.00649C2.32406 4.97849 2.30406 4.94949 2.29306 4.91849C2.27406 4.86449 2.28006 4.79549 2.26006 4.74549C2.23206 4.66849 2.20006 4.58549 2.17206 4.50949C2.15506 4.46549 2.15206 4.42249 2.13706 4.37749C2.12206 4.33249 2.10006 4.27049 2.08006 4.21949C2.06006 4.16849 2.06306 4.11049 2.04506 4.05549C2.02706 4.00049 2.01506 3.97049 2.00106 3.93049C1.97406 3.86149 1.96306 3.78349 1.93106 3.71449L1.91806 3.67649C1.91106 3.65749 1.89806 3.63949 1.87906 3.64449C1.86006 3.64949 1.85706 3.67749 1.85906 3.69649C1.86561 3.74763 1.87871 3.79771 1.89806 3.84549C1.91606 3.89149 1.92506 3.94549 1.93706 3.98649C1.94406 4.01549 1.94306 4.04649 1.95106 4.07649C1.95906 4.10649 1.97706 4.16149 1.98806 4.20449C1.99906 4.24749 1.98806 4.28849 2.00306 4.32149C2.03106 4.41349 2.06206 4.52149 2.09306 4.60649C2.10606 4.65249 2.10806 4.70649 2.12206 4.74549C2.13606 4.78449 2.15706 4.83949 2.17306 4.88649C2.18906 4.93349 2.19106 4.96349 2.20806 5.00049C2.22757 5.04088 2.24493 5.08227 2.26006 5.12449C2.27806 5.18149 2.27606 5.23849 2.29506 5.29249C2.32706 5.37949 2.36806 5.46349 2.39506 5.54749C2.40506 5.57849 2.40906 5.61149 2.41906 5.64249C2.44506 5.71549 2.46406 5.79349 2.49006 5.86649C2.52806 5.96649 2.57706 6.07349 2.61506 6.17649C2.65306 6.27949 2.65806 6.40049 2.70006 6.49549C2.72206 6.54249 2.76706 6.57049 2.78806 6.61649C2.79777 6.64915 2.80447 6.68262 2.80806 6.71649C2.82006 6.75549 2.83806 6.79449 2.85306 6.83049C2.86806 6.86649 2.87006 6.89549 2.87906 6.93049C2.88806 6.96549 2.91906 7.00849 2.93606 7.04549C2.95783 7.10629 2.98321 7.16573 3.01206 7.22349C3.04232 7.26338 3.07004 7.30513 3.09506 7.34849C3.11806 7.39849 3.12706 7.44849 3.15006 7.50549C3.18506 7.58349 3.22506 7.65749 3.25006 7.73749C3.26959 7.81091 3.29363 7.88305 3.32206 7.95349C3.35706 8.01749 3.40106 8.07449 3.43506 8.13749C3.45706 8.18549 3.47906 8.23749 3.50106 8.27949C3.52306 8.32149 3.55306 8.35149 3.57506 8.39149C3.59706 8.43149 3.62806 8.49149 3.65006 8.53849C3.66236 8.57459 3.67741 8.60969 3.69506 8.64349C3.72506 8.69349 3.74906 8.73349 3.78206 8.78349C3.81347 8.83187 3.84025 8.8831 3.86206 8.93649C3.88109 8.97488 3.90423 9.01109 3.93106 9.04449C3.95893 9.07607 3.98465 9.10948 4.00806 9.14449C4.03261 9.19504 4.04592 9.25031 4.04706 9.30649C4.02106 9.31549 3.94706 9.24649 3.92806 9.22149C3.87006 9.15149 3.84206 9.05749 3.78906 8.98249C3.73719 8.91411 3.69167 8.84115 3.65306 8.76449C3.62321 8.69614 3.58983 8.62938 3.55306 8.56449C3.51786 8.5228 3.48609 8.47832 3.45806 8.43149C3.44006 8.38949 3.43006 8.34049 3.41206 8.29949C3.38406 8.24049 3.32906 8.19949 3.30006 8.14049C3.27106 8.08149 3.25406 8.00349 3.21906 7.94049C3.20206 7.90949 3.18006 7.87449 3.16506 7.84049C3.15006 7.80649 3.13606 7.76049 3.11706 7.71949C3.07806 7.63649 3.01706 7.56649 2.98206 7.48349C2.94706 7.40049 2.92006 7.30649 2.88206 7.22149C2.86106 7.17449 2.82306 7.13549 2.80106 7.08849C2.77206 7.02749 2.75706 6.96249 2.72806 6.90049C2.71006 6.86349 2.68406 6.82649 2.66606 6.78949C2.64106 6.73649 2.63206 6.67749 2.60706 6.62149C2.55106 6.49449 2.49306 6.36349 2.43606 6.23849C2.41506 6.18949 2.40906 6.13849 2.38706 6.09049C2.36506 6.04249 2.34506 6.00549 2.32206 5.96249C2.27406 5.85149 2.25606 5.72149 2.20606 5.61049C2.18106 5.55349 2.14906 5.49949 2.12606 5.43849C2.09106 5.33849 2.07806 5.24349 2.04206 5.14549C1.98806 4.99649 1.94206 4.84049 1.89206 4.69149C1.87606 4.64749 1.87506 4.60349 1.85706 4.55649C1.83906 4.50949 1.82506 4.46949 1.80906 4.42649C1.79306 4.38349 1.79106 4.34049 1.78106 4.29549C1.74106 4.16949 1.70106 4.04249 1.66106 3.91549C1.65106 3.88549 1.65006 3.83049 1.63906 3.79149C1.63106 3.77749 1.61906 3.75249 1.61106 3.73149C1.60306 3.71049 1.60206 3.67749 1.59306 3.64749C1.56306 3.55549 1.53906 3.44749 1.50906 3.35449C1.50006 3.32549 1.49706 3.28449 1.48806 3.25449C1.45726 3.11155 1.41887 2.97035 1.37306 2.83149C1.36506 2.80749 1.34906 2.78249 1.32606 2.78849C1.30306 2.79449 1.30806 2.82049 1.31006 2.84249C1.31706 2.90249 1.34006 2.95349 1.35006 3.00449C1.35359 3.03102 1.35559 3.05773 1.35606 3.08449C1.35843 3.10947 1.36278 3.13421 1.36906 3.15849C1.39406 3.23749 1.42306 3.32949 1.44506 3.40649C1.45306 3.44349 1.44506 3.50649 1.45606 3.54449C1.48256 3.67484 1.51594 3.80368 1.55606 3.93049C1.58893 4.04086 1.6153 4.15305 1.63506 4.26649C1.64306 4.31449 1.64606 4.36649 1.65306 4.41049C1.66514 4.45257 1.68191 4.49316 1.70306 4.53149C1.71406 4.56049 1.71306 4.58549 1.72406 4.61549C1.74706 4.69549 1.76706 4.77349 1.79506 4.85349C1.81506 4.90949 1.84506 4.96149 1.86506 5.01549C1.87306 5.04049 1.87106 5.06149 1.87706 5.08849C1.89106 5.14449 1.90006 5.19949 1.91606 5.25349C1.95606 5.36349 1.99306 5.48149 2.03206 5.58949C2.05406 5.65049 2.06106 5.70849 2.08106 5.76749C2.16806 6.00349 2.25506 6.23649 2.34106 6.46749C2.35506 6.51949 2.37006 6.56749 2.38406 6.62349C2.39806 6.67949 2.43406 6.72349 2.45606 6.76749C2.47806 6.81149 2.49306 6.89149 2.51706 6.95549C2.54106 7.01949 2.57906 7.08949 2.60806 7.16749C2.62106 7.20449 2.63506 7.24549 2.65206 7.28249C2.66906 7.31949 2.68806 7.33549 2.70206 7.36249C2.72506 7.40849 2.72906 7.46249 2.75106 7.51349C2.77872 7.55776 2.80877 7.60049 2.84106 7.64149C2.85918 7.68662 2.87487 7.73269 2.88806 7.77949C2.92006 7.85049 2.96206 7.91649 2.99306 7.99249C3.00606 8.02449 3.01106 8.05249 3.02506 8.08249C3.03906 8.11249 3.06706 8.15049 3.08406 8.18249C3.08473 8.18914 3.08473 8.19584 3.08406 8.20249C3.08406 8.21649 3.09306 8.23449 3.09806 8.24849C3.10888 8.27298 3.12194 8.29641 3.13706 8.31849C3.14306 8.32549 3.16006 8.34349 3.17306 8.36049C3.17949 8.36781 3.1855 8.37549 3.19106 8.38349C3.21369 8.43943 3.23339 8.49651 3.25006 8.55449C3.27506 8.60649 3.32006 8.64849 3.35006 8.70249C3.38006 8.75649 3.38006 8.84549 3.35606 8.85049C3.25006 8.85049 3.24306 8.70249 3.20706 8.62449C3.17806 8.56349 3.13606 8.51349 3.10706 8.45549C3.0969 8.43678 3.08885 8.41699 3.08306 8.39649C3.07659 8.37624 3.06856 8.35652 3.05906 8.33749C3.04506 8.30949 3.04506 8.31349 3.03606 8.29249C3.02706 8.27149 2.99706 8.23549 2.98806 8.21749C2.94706 8.15249 2.92006 8.06049 2.88806 8.01749C2.87206 7.99349 2.85106 7.96849 2.83506 7.94349C2.81193 7.89844 2.79156 7.85202 2.77406 7.80449C2.75406 7.76249 2.72206 7.72149 2.70306 7.67649C2.68406 7.63149 2.67806 7.55849 2.65306 7.50549C2.64106 7.47649 2.61806 7.44749 2.60406 7.42049C2.57406 7.35949 2.55706 7.29549 2.52706 7.23649C2.51406 7.20749 2.48806 7.18149 2.47406 7.15249C2.45106 7.10149 2.43806 7.05249 2.41206 7.00149C2.353 6.89866 2.29926 6.79285 2.25106 6.68449C2.22306 6.62249 2.21306 6.55949 2.18706 6.49949C2.16106 6.43949 2.13106 6.39949 2.10806 6.34549C2.09487 6.31282 2.08352 6.27944 2.07406 6.24549C2.05106 6.18749 2.02506 6.12649 2.00406 6.06749C1.99106 6.02649 1.98106 5.93849 1.96806 5.90349C1.95506 5.86849 1.92906 5.81149 1.91006 5.76749C1.88006 5.70349 1.87206 5.63549 1.84306 5.56749C1.81406 5.49949 1.79606 5.46749 1.77706 5.41349C1.75806 5.35949 1.75606 5.32849 1.73906 5.28849C1.72206 5.24849 1.70706 5.22249 1.69606 5.18849C1.6812 5.13855 1.66918 5.0878 1.66006 5.03649C1.64106 4.98049 1.61806 4.92749 1.60106 4.87249C1.58406 4.81749 1.58906 4.73649 1.58006 4.71049C1.52106 4.53949 1.46706 4.35749 1.41306 4.18649C1.38806 4.10749 1.37606 4.02849 1.35406 3.95249C1.34606 3.92049 1.34506 3.88249 1.33706 3.85249C1.32206 3.80349 1.30106 3.75249 1.28606 3.70149C1.27706 3.66649 1.27206 3.63149 1.26506 3.60149C1.25415 3.56483 1.24045 3.52906 1.22406 3.49449C1.19206 3.39449 1.17306 3.28149 1.14306 3.18149C1.13306 3.13949 1.13306 3.08149 1.12206 3.04749C1.08206 2.92349 1.07306 2.77849 1.03706 2.64749C1.02906 2.60949 1.02306 2.57149 1.01406 2.53649C0.950062 2.29249 0.921062 2.01849 0.850062 1.78449C0.837062 1.73949 0.850062 1.68449 0.842062 1.63349C0.834062 1.58249 0.809062 1.53149 0.793062 1.48649C0.787919 1.46438 0.783914 1.44202 0.781062 1.41949C0.769062 1.37949 0.751062 1.34849 0.731062 1.35349C0.711062 1.35849 0.709062 1.38449 0.710062 1.41849C0.712541 1.46705 0.719572 1.51526 0.731062 1.56249C0.740062 1.59949 0.731062 1.63049 0.745062 1.66249C0.768062 1.73749 0.775062 1.84549 0.788062 1.91449C0.788062 1.94249 0.788062 1.98149 0.794062 2.01449C0.800062 2.04749 0.829062 2.09449 0.836062 2.13249C0.843062 2.17049 0.843062 2.24849 0.851062 2.30349C0.859062 2.35849 0.875062 2.39349 0.887062 2.43649C0.899062 2.47949 0.887062 2.50949 0.901062 2.54449C0.91324 2.58155 0.923256 2.61928 0.931062 2.65749C0.937062 2.70049 0.931062 2.76349 0.939062 2.80149C0.994062 3.01649 1.01006 3.27049 1.07306 3.47549C1.08106 3.50549 1.08206 3.53649 1.08906 3.56649C1.14106 3.74749 1.18106 3.93949 1.23606 4.11749C1.24306 4.14549 1.24206 4.17449 1.25006 4.20549C1.26706 4.26849 1.28206 4.33649 1.29606 4.39849C1.30206 4.42849 1.30206 4.45549 1.31006 4.48349C1.32806 4.54949 1.35106 4.61249 1.37306 4.67749C1.38106 4.71049 1.38406 4.74149 1.39006 4.77249C1.39606 4.80349 1.40806 4.82549 1.41606 4.84949C1.42406 4.87349 1.42406 4.92249 1.43506 4.95749C1.44693 4.9779 1.45697 4.99932 1.46506 5.02149C1.47406 5.06049 1.47906 5.09849 1.48906 5.13549C1.49906 5.17249 1.52806 5.22449 1.54706 5.26949C1.56606 5.31449 1.56106 5.34449 1.57506 5.38149C1.60006 5.44349 1.62806 5.51849 1.65206 5.58149C1.67606 5.64449 1.67506 5.69249 1.69506 5.74849C1.70806 5.78549 1.72606 5.82349 1.73906 5.86049C1.75206 5.89749 1.75206 5.91749 1.76206 5.94749C1.77206 5.97749 1.80106 6.01549 1.82006 6.04749C1.82952 6.09174 1.83653 6.13648 1.84106 6.18149C1.85406 6.22449 1.87806 6.25849 1.89306 6.29849C1.90806 6.33849 1.90606 6.38149 1.91706 6.42249C1.92806 6.46349 1.95006 6.48449 1.96306 6.51449C1.97606 6.54449 1.98806 6.58349 2.00106 6.61449C2.01406 6.64549 2.03006 6.66049 2.04106 6.68149C2.05906 6.72049 2.07506 6.76549 2.09106 6.80649C2.10933 6.87232 2.12402 6.93908 2.13506 7.00649C2.13506 7.02649 2.13506 7.07249 2.12806 7.07649C2.10006 7.08149 2.07006 7.03849 2.05206 7.01249C2.01885 6.96613 1.99038 6.91655 1.96706 6.86449C1.95906 6.84349 1.95406 6.82549 1.94706 6.80349C1.93006 6.75949 1.91606 6.70349 1.89606 6.66349C1.88406 6.63549 1.86606 6.60549 1.85606 6.57549C1.84606 6.54549 1.84806 6.48149 1.83206 6.44449C1.81606 6.40749 1.79306 6.38749 1.77806 6.35649C1.76306 6.32549 1.76306 6.29749 1.75006 6.26849C1.7335 6.23403 1.7148 6.20063 1.69406 6.16849C1.68447 6.13563 1.67679 6.10224 1.67106 6.06849C1.66076 6.02917 1.64738 5.99072 1.63106 5.95349C1.61306 5.91249 1.58906 5.87149 1.57006 5.82949C1.56206 5.80649 1.55706 5.78249 1.55106 5.75949C1.54506 5.73649 1.52306 5.69349 1.51106 5.65949C1.5047 5.63542 1.49702 5.61172 1.48806 5.58849C1.47306 5.55349 1.45506 5.51549 1.44106 5.47649C1.42706 5.43749 1.42906 5.41249 1.41806 5.38249C1.39906 5.32849 1.38106 5.26749 1.36106 5.21449C1.34106 5.16149 1.34206 5.13149 1.33106 5.09349C1.32006 5.05549 1.29406 4.99349 1.27706 4.94949C1.26006 4.90549 1.26006 4.86849 1.24906 4.82849C1.23806 4.78849 1.20406 4.72849 1.18706 4.67449C1.17006 4.62049 1.17406 4.58749 1.16506 4.54649C1.13506 4.44649 1.10306 4.33449 1.07106 4.23049C1.03906 4.12649 1.03106 3.98449 0.998062 3.86849C0.974062 3.78549 0.944062 3.70449 0.919062 3.62349C0.910062 3.58049 0.909062 3.54049 0.898062 3.49949C0.875062 3.40649 0.841062 3.28649 0.810062 3.18949C0.794062 3.13849 0.800062 3.08949 0.785062 3.03249C0.770062 2.97549 0.767062 2.91149 0.750062 2.85349C0.736293 2.81874 0.72526 2.78297 0.717062 2.74649C0.707062 2.70049 0.708062 2.64649 0.702062 2.61249C0.696062 2.57849 0.631062 2.37449 0.631062 2.33149C0.631062 2.28849 0.621062 2.23149 0.617062 2.20449C0.613062 2.17749 0.582062 2.10449 0.579062 2.07749C0.576062 2.05049 0.579062 2.02849 0.566062 1.98349C0.553062 1.93849 0.531062 1.83849 0.531062 1.80949C0.531062 1.78049 0.531062 1.72149 0.521062 1.69249C0.511062 1.66349 0.496062 1.59249 0.482062 1.54749C0.468062 1.50249 0.474062 1.43149 0.458062 1.37349C0.442062 1.31549 0.431062 1.29249 0.416062 1.25349C0.406139 1.22072 0.398455 1.18731 0.393062 1.15349C0.391062 1.12349 0.389062 1.05949 0.387062 1.03149C0.385062 1.00349 0.372062 0.948494 0.369062 0.900494C0.36476 0.841397 0.355053 0.782819 0.340062 0.725494C0.331062 0.701494 0.337062 0.673494 0.331062 0.651494C0.315062 0.586494 0.300062 0.531494 0.267062 0.531494C0.234062 0.531494 0.231062 0.555494 0.245062 0.596494C0.259062 0.637494 0.262062 0.686494 0.275062 0.731494C0.280514 0.770254 0.283187 0.809353 0.283062 0.848494C0.283062 0.884494 0.283062 0.891494 0.291062 0.926494C0.291062 0.939494 0.299062 0.971494 0.304062 0.985494C0.309995 1.00909 0.313679 1.0332 0.315062 1.05749C0.315062 1.08049 0.315062 1.10349 0.315062 1.13649C0.314653 1.15402 0.316672 1.17152 0.321062 1.18849C0.326194 1.20713 0.329543 1.22622 0.331062 1.24549C0.331062 1.26649 0.331062 1.28649 0.331062 1.30349C0.330786 1.32556 0.334165 1.34753 0.341062 1.36849C0.364017 1.41965 0.374636 1.47548 0.372062 1.53149C0.365385 1.59509 0.373249 1.65938 0.395062 1.71949C0.402062 1.75649 0.395062 1.79749 0.402062 1.83349C0.409062 1.86949 0.428062 1.93349 0.441062 1.98749C0.454062 2.04149 0.441062 2.06749 0.456062 2.10849C0.471062 2.14949 0.510062 2.24049 0.515062 2.26549C0.520062 2.29049 0.515062 2.35949 0.525062 2.40249C0.535062 2.44549 0.545062 2.49949 0.547062 2.53149C0.549062 2.56349 0.547062 2.57149 0.547062 2.59249C0.547062 2.61349 0.577062 2.71049 0.582062 2.73649C0.587062 2.76249 0.582062 2.77549 0.592062 2.80149C0.602062 2.82749 0.620062 2.93449 0.624062 2.96749C0.628062 3.00049 0.624062 3.02149 0.635062 3.05649C0.645062 3.10849 0.666062 3.15649 0.677062 3.20249C0.688062 3.24849 0.677062 3.26349 0.686062 3.29349C0.697062 3.34049 0.713062 3.38349 0.721062 3.42749C0.729062 3.47149 0.731062 3.49149 0.736062 3.53149C0.752062 3.60649 0.763062 3.68249 0.784062 3.75849C0.797062 3.80249 0.822062 3.84349 0.836062 3.88649C0.850062 3.92949 0.850062 3.96849 0.861062 4.00749C0.872062 4.04649 0.895062 4.07149 0.903062 4.10749C0.911062 4.14349 0.903062 4.17049 0.913062 4.20249C0.923062 4.23449 0.936062 4.27249 0.943062 4.30949C0.950062 4.34649 0.943062 4.36349 0.953062 4.39249C0.963062 4.42149 0.978062 4.45249 0.986062 4.48349C0.994062 4.51449 0.993062 4.56149 1.00306 4.60049C1.01306 4.63949 1.03306 4.69049 1.04706 4.73149C1.06106 4.77249 1.05406 4.81349 1.06506 4.85549C1.09006 4.94749 1.12106 5.04849 1.15106 5.13549C1.16406 5.18149 1.16206 5.22949 1.17906 5.27949C1.19206 5.31249 1.20606 5.33549 1.22006 5.36449C1.23406 5.39349 1.22006 5.42649 1.23006 5.46449C1.24506 5.51949 1.25306 5.59549 1.27306 5.64949C1.29306 5.70349 1.33106 5.76149 1.35206 5.82149C1.37306 5.88149 1.37506 5.94749 1.39606 6.01249C1.41706 6.07749 1.44406 6.11949 1.46506 6.17049C1.48606 6.22149 1.47706 6.27049 1.49306 6.32149C1.50906 6.37249 1.54906 6.41249 1.56906 6.46549C1.58906 6.51849 1.60606 6.58649 1.62406 6.64649C1.63106 6.67249 1.63606 6.69749 1.64006 6.72349C1.66306 6.80249 1.70506 6.86749 1.73206 6.94249C1.74206 6.97749 1.74506 7.00649 1.75506 7.04249C1.77413 7.09746 1.79651 7.15123 1.82206 7.20349C1.84206 7.24949 1.87306 7.29549 1.89406 7.34249C1.91506 7.38949 1.91606 7.42849 1.93506 7.47349C1.95406 7.51849 1.97306 7.56349 1.98906 7.60749C1.99906 7.63549 2.00006 7.65949 2.01206 7.68549C2.06606 7.80449 2.13106 7.92549 2.18606 8.04149C2.21506 8.10549 2.22906 8.17449 2.26006 8.24149C2.29106 8.30849 2.31206 8.34149 2.33506 8.39649C2.34906 8.43149 2.35306 8.46449 2.36806 8.49649C2.39706 8.56049 2.44006 8.62549 2.46806 8.68849C2.48447 8.72308 2.49171 8.7613 2.48906 8.79949C2.48906 8.79949 2.48906 8.80849 2.48306 8.81049C2.46306 8.81049 2.42406 8.78149 2.40106 8.75849C2.33106 8.67449 2.31706 8.53149 2.26406 8.43149C2.24906 8.40349 2.23006 8.37249 2.21806 8.34449C2.21179 8.32379 2.20445 8.30343 2.19606 8.28349C2.16306 8.22049 2.12106 8.16449 2.09606 8.09749C2.07406 8.04949 2.07106 7.99749 2.05106 7.94949C1.96406 7.76249 1.86406 7.58249 1.78006 7.39349C1.74206 7.30849 1.73406 7.21149 1.70006 7.11849C1.68006 7.06349 1.64706 7.01849 1.62306 6.96649C1.59906 6.91449 1.60106 6.88349 1.58206 6.84249C1.56306 6.80149 1.52306 6.74249 1.50306 6.68049C1.49106 6.64349 1.48606 6.60549 1.47106 6.56849C1.45606 6.53149 1.42606 6.49249 1.40706 6.45249C1.38643 6.39171 1.37006 6.32956 1.35806 6.26649C1.34706 6.22949 1.33206 6.19249 1.32106 6.15949C1.31006 6.12649 1.30706 6.09549 1.29706 6.06649C1.27206 5.99549 1.22906 5.93349 1.20206 5.86049C1.18406 5.81149 1.18906 5.74949 1.16706 5.70249C1.14506 5.65549 1.11906 5.63249 1.10306 5.59149C1.08706 5.55049 1.10306 5.49749 1.08706 5.44749C1.07106 5.39749 1.05506 5.35549 1.03906 5.30849C1.03106 5.27949 1.02806 5.25249 1.02006 5.22449C0.998062 5.16649 0.977062 5.10749 0.956062 5.05049C0.942062 5.03149 0.942062 5.00049 0.931062 4.97349C0.911351 4.94111 0.893327 4.90774 0.877062 4.87349C0.861062 4.81149 0.857062 4.75249 0.844062 4.69749C0.821062 4.62249 0.793062 4.56349 0.772062 4.49249C0.769409 4.46895 0.765402 4.44558 0.760062 4.42249C0.743062 4.35849 0.731062 4.28749 0.717062 4.22349C0.710062 4.19249 0.711062 4.16749 0.703062 4.13649C0.685062 4.07649 0.665062 4.01649 0.647062 3.95949C0.638062 3.92149 0.636062 3.88449 0.631062 3.84849C0.602062 3.75449 0.575062 3.64849 0.548062 3.55349C0.531062 3.52649 0.537062 3.50149 0.531062 3.47149C0.507062 3.40049 0.478062 3.31349 0.461062 3.23949C0.453062 3.19649 0.453062 3.15549 0.444062 3.11549C0.435062 3.07549 0.415062 3.01549 0.405062 2.96749C0.405062 2.94449 0.405062 2.92749 0.405062 2.90749C0.405062 2.88749 0.398062 2.84349 0.392062 2.80749C0.359062 2.67649 0.309062 2.51749 0.280062 2.38749C0.271062 2.34049 0.270062 2.29249 0.265062 2.24649C0.261016 2.21291 0.255342 2.17953 0.248062 2.14649C0.235642 2.11384 0.225288 2.08044 0.217062 2.04649C0.208062 1.98549 0.208062 1.93149 0.199062 1.87649C0.199302 1.8725 0.199302 1.86849 0.199062 1.86449C0.188062 1.79749 0.154062 1.66449 0.147062 1.60749C0.140062 1.55049 0.131062 1.47749 0.119062 1.41449C0.118062 1.37349 0.111062 1.33149 0.106062 1.28549C0.0960617 1.21849 0.0810617 1.15949 0.0730617 1.09049C0.0730617 1.04449 0.0730617 1.00349 0.0650617 0.964494C0.0570617 0.925494 0.0610617 0.896494 0.0310617 0.896494C0.00106171 0.896494 0.0030617 0.931494 6.17033e-05 0.961494C-0.000623209 1.02847 0.00439491 1.09537 0.0150617 1.16149C0.0240617 1.24149 0.0150617 1.31949 0.0260617 1.40049C0.0320617 1.44649 0.0460617 1.49149 0.0500617 1.53449C0.0620617 1.61149 0.0690617 1.68949 0.0790617 1.76349C0.0817332 1.79708 0.0864082 1.83047 0.0930617 1.86349C0.0927061 1.86682 0.0927061 1.87017 0.0930617 1.87349V1.87949C0.0930617 1.89449 0.0990617 1.90949 0.103062 1.92449C0.107062 1.93949 0.103062 1.97749 0.117062 2.00749C0.140062 2.09649 0.134062 2.19349 0.160062 2.27849C0.195062 2.40749 0.214062 2.55149 0.251062 2.67849C0.260062 2.71549 0.251062 2.75349 0.261062 2.79349C0.271062 2.83349 0.282062 2.87349 0.291062 2.91449C0.300062 2.95549 0.291062 3.01449 0.307062 3.06249C0.323062 3.11049 0.332062 3.15349 0.344062 3.19649C0.356062 3.23949 0.359062 3.30349 0.374062 3.36049C0.392442 3.419 0.407796 3.47841 0.420062 3.53849C0.431062 3.60549 0.438062 3.67949 0.451062 3.75049C0.464062 3.82149 0.493062 3.87849 0.508062 3.94149C0.508062 3.96249 0.508062 3.98349 0.514062 4.00549C0.522062 4.05149 0.536062 4.09549 0.545062 4.13949C0.545062 4.16049 0.545062 4.17849 0.555062 4.20049C0.576062 4.28349 0.602062 4.38849 0.628062 4.47149C0.635062 4.49449 0.637062 4.51849 0.643062 4.54249C0.660062 4.60149 0.678062 4.64249 0.685062 4.67749C0.692062 4.71249 0.693062 4.73849 0.701062 4.76849C0.709062 4.79849 0.727062 4.85249 0.736062 4.89249C0.745062 4.93249 0.748062 4.95049 0.756062 4.98149C0.766809 5.01872 0.780176 5.05515 0.796062 5.09049C0.821062 5.16549 0.824062 5.24549 0.851062 5.31849C0.867062 5.36149 0.888062 5.40349 0.902062 5.44949C0.916062 5.49549 0.917062 5.54349 0.930062 5.59149C0.956062 5.66349 0.983062 5.74649 1.01006 5.81849C1.03706 5.89049 1.06006 5.99949 1.08906 6.08149C1.10206 6.11449 1.09906 6.14649 1.11006 6.18149C1.13406 6.26249 1.16206 6.35449 1.18906 6.43749C1.20306 6.48149 1.20306 6.52349 1.22106 6.56549C1.24906 6.63449 1.28906 6.69249 1.31506 6.76549C1.34106 6.83849 1.34106 6.88749 1.36506 6.94349C1.39506 7.01949 1.42906 7.09549 1.46006 7.17549C1.48006 7.23049 1.48706 7.28549 1.51006 7.33649C1.53306 7.38749 1.55406 7.42649 1.57606 7.47249C1.59806 7.51849 1.60306 7.54949 1.61506 7.58949C1.63454 7.63097 1.65623 7.67136 1.68006 7.71049C1.70506 7.76449 1.70806 7.82249 1.73006 7.88149C1.76206 7.97049 1.80606 8.06049 1.84306 8.14449C1.85806 8.17649 1.86006 8.20649 1.87306 8.24449C1.89606 8.30349 1.93406 8.34449 1.95806 8.40349C1.98206 8.46249 1.98806 8.51049 2.01106 8.56049C2.0505 8.62631 2.07093 8.70177 2.07006 8.77849C2.0705 8.78307 2.06934 8.78766 2.06679 8.79148C2.06424 8.79531 2.06045 8.79814 2.05606 8.79949C2.03706 8.80749 2.01406 8.77349 2.00106 8.76149C1.95545 8.7073 1.92142 8.64434 1.90106 8.57649C1.84706 8.45949 1.77906 8.35049 1.72606 8.23649C1.69806 8.17749 1.68706 8.11249 1.65906 8.05149C1.64206 8.01449 1.61706 7.97749 1.60106 7.94049C1.57606 7.88649 1.56306 7.83149 1.53606 7.78349C1.49815 7.70787 1.46476 7.63007 1.43606 7.55049C1.42406 7.52049 1.42306 7.49149 1.41006 7.46249C1.39706 7.43349 1.37306 7.40449 1.36006 7.37449C1.34006 7.32749 1.32706 7.26749 1.30706 7.21749C1.26306 7.13149 1.21606 7.03149 1.17906 6.93149C1.14206 6.83149 1.13006 6.75249 1.09706 6.65949C1.08306 6.62149 1.06506 6.58049 1.05106 6.54149C1.03706 6.50249 1.04006 6.47649 1.02806 6.44149C0.998062 6.35849 0.959062 6.26949 0.922062 6.18949C0.905062 6.14949 0.900062 6.11049 0.885062 6.06849C0.870062 6.02649 0.844062 5.96449 0.825062 5.91449C0.801062 5.84749 0.800062 5.76949 0.774062 5.69949C0.721062 5.54849 0.650062 5.39149 0.604062 5.23149C0.595062 5.19549 0.598062 5.15849 0.587062 5.12149C0.562062 5.04249 0.531062 4.95449 0.511062 4.86849C0.491062 4.78249 0.487062 4.67649 0.458062 4.58449C0.420062 4.46549 0.377062 4.34149 0.340062 4.22349C0.331062 4.18849 0.331062 4.15149 0.324062 4.11349C0.299062 4.02349 0.267062 3.91349 0.237062 3.83149C0.222062 3.78949 0.222062 3.74349 0.206062 3.70349C0.190062 3.66349 0.138062 3.67249 0.142062 3.73149C0.147565 3.77763 0.155915 3.82339 0.167062 3.86849C0.173062 3.90249 0.173062 3.93649 0.180062 3.96849C0.195062 4.03249 0.215062 4.08549 0.233062 4.14249C0.251062 4.19949 0.253062 4.25849 0.269062 4.32049C0.279062 4.35049 0.291062 4.38449 0.300062 4.41349C0.318062 4.47549 0.318062 4.54149 0.339062 4.59849C0.360062 4.65549 0.367062 4.69849 0.382062 4.74349C0.390062 4.77449 0.389062 4.79949 0.399062 4.83049C0.415062 4.88749 0.433062 4.94249 0.451062 4.99949C0.459062 5.03149 0.457062 5.05949 0.463062 5.08849C0.476062 5.13349 0.486062 5.17849 0.499062 5.22049C0.512062 5.26249 0.509062 5.31549 0.523062 5.35749C0.548062 5.43449 0.577062 5.51649 0.602062 5.58949C0.627062 5.66249 0.635062 5.75449 0.664062 5.83749C0.717062 5.98249 0.764062 6.15049 0.817062 6.29849C0.831062 6.33549 0.827062 6.37449 0.838062 6.41549C0.855062 6.47849 0.870062 6.54049 0.892062 6.60349C0.902062 6.63349 0.922062 6.66349 0.934062 6.69049C0.946062 6.71749 0.955062 6.76549 0.972062 6.80249C0.989062 6.83949 1.00406 6.86149 1.01606 6.89149C1.03206 6.93849 1.02706 6.99149 1.04506 7.03949C1.06306 7.08749 1.07706 7.11349 1.09206 7.15049C1.10706 7.18749 1.10706 7.23449 1.12406 7.27249C1.14106 7.31049 1.16106 7.33649 1.17706 7.37249C1.18985 7.40493 1.19988 7.43838 1.20706 7.47249C1.22106 7.50749 1.24006 7.54349 1.25506 7.57249C1.27006 7.60149 1.27206 7.65149 1.29006 7.69049C1.30806 7.72949 1.32706 7.75549 1.34006 7.79049C1.35306 7.82549 1.35406 7.86849 1.36806 7.90749C1.39106 7.96449 1.42606 8.01449 1.45106 8.06949C1.47606 8.12449 1.47106 8.15549 1.49006 8.19749C1.50906 8.23949 1.54006 8.29249 1.56106 8.33749C1.58906 8.40149 1.61106 8.46749 1.63906 8.52649C1.68506 8.63249 1.70206 8.74849 1.75006 8.85149C1.78506 8.93049 1.83406 9.00149 1.86906 9.07749C1.88706 9.12049 1.89406 9.16549 1.91306 9.20549C1.93206 9.24549 1.97306 9.29049 1.99406 9.33749C2.01506 9.38449 2.02406 9.43049 2.04406 9.47549C2.06406 9.52049 2.10906 9.58649 2.13606 9.64449C2.15206 9.67649 2.15906 9.70849 2.17306 9.74449C2.20206 9.80849 2.25106 9.86149 2.28006 9.92349C2.29406 9.96449 2.31006 10.0055 2.32406 10.0475C2.35606 10.1145 2.40606 10.1715 2.43906 10.2395C2.4579 10.2905 2.48063 10.34 2.50706 10.3875C2.55206 10.4585 2.58206 10.5055 2.62606 10.5785C2.65948 10.6321 2.68986 10.6875 2.71706 10.7445C2.74006 10.7955 2.77906 10.8365 2.80206 10.8865C2.82506 10.9365 2.85506 10.9865 2.88106 11.0345C2.90706 11.0825 2.94006 11.1245 2.97306 11.1735C3.02506 11.2535 3.05806 11.3385 3.11006 11.4195C3.14606 11.4765 3.18806 11.5325 3.22706 11.5875C3.33306 11.7335 3.48506 11.9925 3.54906 12.0795C3.60306 12.1505 3.64906 12.2345 3.69806 12.3085C3.73506 12.3665 3.78306 12.4235 3.82506 12.4775C3.86706 12.5315 3.88606 12.5695 3.92006 12.6155L3.94706 12.6505C5.04205 14.0689 6.37073 15.2904 7.87606 16.2625C8.17692 16.4618 8.49764 16.6294 8.83306 16.7625C8.91206 16.7955 8.85806 16.8525 8.81806 16.8785L1.81806 21.3535C1.79606 21.3685 1.74306 21.4075 1.76506 21.4535C1.78706 21.4995 1.85206 21.4685 1.87106 21.4615C7.48706 19.4905 11.5601 17.8705 14.0511 16.6885C16.5761 15.4885 17.4241 14.8045 17.3321 14.4635" fill="white" fill-opacity="0.32"/>
<path d="M93.9829 12.3184V11.9184H94.4689C95.0009 11.8888 95.5345 11.9295 96.0559 12.0394C96.5243 12.1722 96.93 12.4677 97.2 12.8728C97.47 13.2779 97.5866 13.766 97.5289 14.2494C97.543 14.5592 97.4939 14.8686 97.3844 15.1588C97.2749 15.4489 97.1074 15.7137 96.8922 15.9369C96.6769 16.1601 96.4184 16.3371 96.1324 16.457C95.8464 16.577 95.539 16.6373 95.2289 16.6344C94.7961 16.6149 94.3715 16.5095 93.9799 16.3244L93.9829 12.3184ZM95.9559 17.6294C96.42 17.6506 96.8837 17.579 97.3199 17.4188C97.756 17.2585 98.1558 17.0129 98.4959 16.6963C98.8359 16.3797 99.1094 15.9985 99.3004 15.5749C99.4913 15.1513 99.5959 14.6939 99.6079 14.2294C99.6262 13.4701 99.3664 12.7303 98.8775 12.1491C98.3885 11.5679 97.7041 11.1854 96.9529 11.0734C96.3459 10.9518 95.7263 10.9048 95.1079 10.9334H91.0369L91.1059 11.0014C91.1059 11.0014 91.8059 11.1014 91.8059 12.3264V19.9264C91.8059 21.1474 91.1059 21.2494 91.1059 21.2494L91.0369 21.3224H94.7419L94.6739 21.2494C94.6739 21.2494 93.9829 21.1494 93.9829 19.9264V17.2684C94.6082 17.5251 95.2802 17.6474 95.9559 17.6294ZM149.999 18.0874L149.182 20.8674C148.12 21.2178 147.014 21.4197 145.897 21.4674C141.87 21.4674 139.919 18.7014 139.919 16.1954C139.919 13.0804 142.285 10.7594 146.048 10.7594C147.269 10.7506 148.478 10.9951 149.6 11.4774V13.7214L149.539 13.6714C149.215 13.0777 148.733 12.5855 148.146 12.25C147.559 11.9145 146.891 11.7488 146.215 11.7714C143.857 11.7714 142.359 13.5154 142.359 16.1814C142.359 18.8474 143.905 20.3094 146.135 20.3094C146.891 20.2744 147.629 20.0594 148.286 19.6821C148.942 19.3049 149.499 18.7763 149.911 18.1404L149.999 18.0874ZM123.835 12.3184V19.9184C123.835 21.1394 124.535 21.2414 124.535 21.2414L124.605 21.3144H120.895L120.966 21.2414C120.966 21.2414 121.658 21.1414 121.658 19.9184V12.3184C121.658 11.0974 120.966 10.9934 120.966 10.9934L120.895 10.9254H124.605L124.535 10.9934C124.535 10.9934 123.835 11.0934 123.835 12.3184ZM132.504 10.9254C132.974 10.9748 133.449 10.9351 133.904 10.8084V12.6624L133.835 12.6094C133.618 12.3692 133.349 12.1815 133.048 12.0602C132.748 11.939 132.424 11.8874 132.101 11.9094H129.471V15.2284H131.659C132.88 15.2284 132.983 14.6944 132.983 14.6944L133.056 14.6224V16.8494L132.983 16.7774C132.983 16.7774 132.883 16.2414 131.659 16.2414H129.471V19.9174C129.471 21.1384 130.161 21.2404 130.161 21.2404L130.235 21.3094H126.525L126.591 21.2364C126.591 21.2364 127.284 21.1364 127.284 19.9134V12.3224C127.284 11.1004 126.591 10.9984 126.591 10.9984L126.525 10.9264H132.502L132.504 10.9254ZM119.462 18.1434L119.55 18.0854L118.737 20.8654C117.674 21.216 116.567 21.418 115.449 21.4654C111.427 21.4654 109.475 18.6994 109.475 16.1934C109.475 13.0784 111.836 10.7604 115.603 10.7604C116.822 10.751 118.03 10.9948 119.151 11.4764V13.7204L119.092 13.6704C118.769 13.0774 118.287 12.5858 117.701 12.2504C117.115 11.9149 116.447 11.7488 115.772 11.7704C113.411 11.7704 111.916 13.5144 111.916 16.1804C111.916 18.8464 113.456 20.3114 115.686 20.3114C116.442 20.2753 117.179 20.0598 117.835 19.6826C118.492 19.3055 119.049 18.7775 119.461 18.1424M138.109 12.3164V19.9164C138.109 21.1374 138.803 21.2394 138.803 21.2394L138.873 21.3124H135.163L135.233 21.2394C135.233 21.2394 135.926 21.1394 135.926 19.9164V12.3164C135.926 11.0954 135.233 10.9914 135.233 10.9914L135.163 10.9234H138.873L138.803 10.9914C138.803 10.9914 138.109 11.0914 138.109 12.3164ZM101.86 17.3384L103.46 13.9714L104.922 17.3384H101.86ZM108.497 19.8944L103.935 10.4094L99.4029 19.9014C98.7239 21.2014 97.9769 21.2274 97.9769 21.2274L97.9069 21.2994H101.007L100.939 21.2274C100.939 21.2274 100.07 21.0564 100.619 19.9014L101.437 18.2254H105.32L106.11 19.9014C106.66 21.0554 105.792 21.2274 105.792 21.2274L105.722 21.2994H109.995L109.924 21.2274C109.924 21.2274 109.137 21.2214 108.497 19.9014M65.1169 19.9014C65.1169 18.6794 65.1169 13.5264 65.1169 12.3014C65.1169 11.0764 65.8109 10.9904 65.8109 10.9904L65.8819 10.9224H62.1719L62.2399 10.9904C62.2399 10.9904 62.9339 11.0794 62.9339 12.3014C62.9339 13.5234 62.9399 15.2834 62.9399 15.2834H57.8399V12.3094C57.8399 11.0874 58.5399 11.0024 58.5399 11.0024L58.6079 10.9324H54.8869L54.9599 11.0024C54.9599 11.0024 55.6509 11.0874 55.6509 12.3094V19.9094C55.6509 21.1334 54.9599 21.2384 54.9599 21.2384L54.8869 21.3074H58.5939L58.5259 21.2384C58.5259 21.2384 57.8259 21.1334 57.8259 19.9094V16.3094H62.9259V19.9094C62.9259 21.1334 62.2349 21.2384 62.2349 21.2384L62.1629 21.3074H65.8739L65.8019 21.2384C65.8019 21.2384 65.1079 21.1334 65.1079 19.9094M45.6459 10.9274C45.176 10.978 44.7008 10.9383 44.2459 10.8104V12.8754L44.3169 12.8234C44.5186 12.5417 44.7857 12.3131 45.0952 12.1572C45.4047 12.0013 45.7474 11.9228 46.0939 11.9284H47.8349V19.9024C47.8349 21.1264 47.1459 21.2314 47.1459 21.2314L47.0739 21.3004H50.7829L50.7139 21.2314C50.7139 21.2314 50.0199 21.1264 50.0199 19.9024L50.0289 11.9284H51.7289C52.0797 11.9248 52.4264 12.0039 52.7409 12.1594C53.0554 12.3149 53.3288 12.5424 53.5389 12.8234L53.6109 12.8754V10.8104C53.1559 10.938 52.6807 10.9777 52.2109 10.9274H45.6459ZM70.1929 17.3404L71.7929 13.9734L73.2519 17.3404H70.1929ZM76.8329 19.8964L72.2699 10.4094L67.7349 19.8974C67.0569 21.1974 66.3089 21.2234 66.3089 21.2234L66.2389 21.2954H69.3389L69.2719 21.2234C69.2719 21.2234 68.4029 21.0524 68.9509 19.8974L69.7649 18.2214H73.6529L74.4419 19.8974C74.9939 21.0514 74.1259 21.2234 74.1259 21.2234L74.0559 21.2954H78.3279L78.2569 21.2234C78.2569 21.2234 77.4689 21.2174 76.8319 19.8974M84.1539 10.9274L84.2259 10.9974C84.2259 10.9974 85.1429 11.2554 84.4509 12.3304C84.1129 12.8534 83.0919 14.3144 82.1619 15.7304C81.2279 14.3174 80.2219 12.8474 79.8859 12.3254C79.1949 11.2484 80.1149 11.0014 80.1149 11.0014L80.1819 10.9314H75.9109L75.9799 11.0014C75.9799 11.0014 76.5979 11.1014 77.4089 12.3254C77.7489 12.8414 79.4839 15.2654 80.4179 16.6804V19.9054C80.4179 21.1294 79.7239 21.2344 79.7239 21.2344L79.6549 21.3034H83.3629L83.2919 21.2344C83.2919 21.2344 82.6009 21.1294 82.6009 19.9054C82.6009 19.3884 82.5939 18.0924 82.5939 16.6804C83.5289 15.2654 85.2669 12.8514 85.6089 12.3344C85.7892 12.0051 86.0358 11.7167 86.333 11.4873C86.6302 11.2579 86.9716 11.0925 87.3359 11.0014L87.4079 10.9314L84.1539 10.9274ZM29.6349 20.3094C27.4039 20.3094 25.8649 18.8464 25.8649 16.1784C25.8649 13.5104 27.3649 11.7684 29.7169 11.7684C30.3926 11.7458 31.0614 11.9115 31.6483 12.247C32.2353 12.5825 32.7175 13.0747 33.0409 13.6684L33.0989 13.7184V11.4794C31.9783 10.9974 30.7697 10.7535 29.5499 10.7634C25.7849 10.7634 23.4219 13.0814 23.4219 16.1964C23.4219 18.7014 25.3739 21.4684 29.3969 21.4684C30.5153 21.4207 31.6217 21.2188 32.6849 20.8684L33.4979 18.0884L33.4089 18.1464C32.9966 18.7806 32.4393 19.3075 31.783 19.6836C31.1268 20.0597 30.3904 20.2742 29.6349 20.3094ZM37.5219 17.3364L39.1219 13.9694L40.5819 17.3364H37.5219ZM44.1619 19.8924L39.5959 10.4094L35.0629 19.9014C34.3849 21.2014 33.6349 21.2274 33.6349 21.2274L33.5669 21.2994H36.6669L36.5919 21.2274C36.5919 21.2274 35.7259 21.0564 36.2769 19.9014L37.0889 18.2254H40.9749L41.7649 19.9014C42.3129 21.0554 41.4469 21.2274 41.4469 21.2274L41.3789 21.2994H45.6519L45.5789 21.2274C45.5789 21.2274 44.7909 21.2214 44.1549 19.9014" fill="white" fill-opacity="0.32"/>
</g>
<defs>
<clipPath id="clip0_937_4586">
<rect width="150" height="20.937" fill="white" transform="translate(0 0.531494)"/>
</clipPath>
</defs>
</svg>
