<svg width="108" height="38" viewBox="0 0 108 38" fill="none" xmlns="http://www.w3.org/2000/svg">
<g clip-path="url(#clip0_937_4540)">
<path d="M19.5965 3.66403C19.0031 4.44814 18.673 5.39989 18.6535 6.38303V14.903C18.5717 15.5426 18.3352 16.1525 17.9645 16.68C17.7835 16.861 16.4055 18.094 16.3325 18.239L17.0575 18.275C17.3115 18.094 19.8495 15.81 20.0665 15.483C20.8156 14.6714 21.2423 13.6142 21.2665 12.51V4.31703C21.2765 3.47001 21.5992 2.65656 22.1725 2.03303C22.4985 1.70703 23.4415 0.833029 23.6225 0.655029H22.8615C22.7145 0.909029 19.9225 3.41003 19.5965 3.66403Z" fill="white" fill-opacity="0.32"/>
<path d="M13.3599 34.7347L16.4779 37.4177H18.5449C20.5269 37.4187 22.4292 36.637 23.8379 35.2427C24.9978 34.0093 25.6232 32.3673 25.5779 30.6747V26.2147C25.564 25.7159 25.4508 25.2248 25.2447 24.7703C25.0387 24.3157 24.744 23.9069 24.3779 23.5677C24.2689 23.4587 23.3269 22.5527 23.3269 22.5527V25.9967C23.3269 25.9967 24.3419 27.0477 24.5269 27.2297C25.4699 28.2087 25.4699 29.9847 22.4969 32.8127C21.4807 33.9445 20.0625 34.6342 18.5449 34.7347H13.3599Z" fill="white" fill-opacity="0.32"/>
<path d="M21.9901 16.5339C21.5399 17.1286 21.2978 17.8549 21.3011 18.6009V20.2689H22.9691C23.3047 20.2481 23.6315 20.1526 23.9256 19.9895C24.2197 19.8264 24.4737 19.5996 24.6691 19.3259V17.6579C24.9266 18.0243 25.2456 18.3434 25.6121 18.6009C25.7931 18.4199 27.3521 16.5009 28.621 16.4619C30.796 16.4259 30.2891 19.1809 29.4211 20.0879C29.0951 20.4139 27.8621 21.5379 27.4991 21.9369C26.448 22.9159 24.7071 22.4809 24.7071 19.9069C24.7071 19.9069 22.7851 21.6839 22.5321 21.9369C22.2061 22.1909 21.2991 23.2059 21.2991 23.2059V27.6289C21.36 28.267 21.2776 28.9106 21.0581 29.5128C20.8386 30.1151 20.4873 30.6607 20.0301 31.1099C19.8491 31.3639 17.3831 33.5389 17.0571 33.7929L16.2961 33.8289C16.2961 33.8289 17.7101 32.5599 17.9641 32.2699C18.4622 31.6731 18.7092 30.9062 18.6531 30.1309C18.6531 29.8049 18.5801 23.1699 18.5801 23.1699H7.77705C3.97005 23.1699 3.20905 19.0009 3.17705 17.8039V13.5969C3.17885 13.1621 3.06956 12.7342 2.85955 12.3535C2.64954 11.9729 2.34577 11.6522 1.97705 11.4219H3.02805C3.13705 11.4949 3.82805 11.7479 3.82805 14.2859C3.82805 14.2859 3.75505 17.2949 3.75505 17.4759C3.74704 18.1758 4.00432 18.8529 4.47517 19.3708C4.94602 19.8888 5.59551 20.2093 6.29305 20.2679L18.6561 20.2319C18.7546 19.4093 19.0813 18.6306 19.5991 17.9839C19.9251 17.6209 22.6081 15.1919 22.8991 14.9749H23.6991C23.5901 15.0839 22.285 16.2079 21.9991 16.5339H21.9901ZM26.0511 19.0339C26.3771 19.4689 26.7401 19.8679 27.1021 20.2669C28.4431 21.3179 29.0241 20.1579 28.1531 18.9979C27.8271 18.4919 26.4491 18.6009 26.0511 19.0359V19.0339Z" fill="white" fill-opacity="0.32"/>
<path d="M12.8535 26.9763C12.8535 27.5563 10.9315 29.1514 10.8235 29.2243C10.7145 28.5714 10.1705 27.8833 8.79346 26.4693L10.8595 24.4023C12.2735 25.8163 12.8535 26.1423 12.8535 26.9763Z" fill="white" fill-opacity="0.32"/>
<path d="M16.4409 3.12003C16.8759 3.55503 17.7459 4.67903 17.2409 5.22003C16.7699 5.69103 16.0409 6.45303 16.0409 6.45303C15.8393 6.10002 15.5824 5.78164 15.2799 5.51003V7.76103C15.2439 8.70403 14.9539 8.96103 14.9539 8.96103C15.9492 9.98846 16.5413 11.3399 16.6219 12.768V14.943C16.6377 15.151 16.6068 15.3598 16.5316 15.5542C16.4563 15.7487 16.3386 15.9239 16.1869 16.067C16.0419 16.248 14.5189 17.807 14.2649 17.989C14.0992 18.1534 13.9002 18.2805 13.6814 18.3617C13.4625 18.443 13.2288 18.4765 12.9959 18.46H7.15893C6.21593 18.46 5.27393 17.771 5.27393 17.01C5.27393 16.829 5.30993 14.871 5.30993 14.871C5.45391 15.0871 5.64748 15.2657 5.87449 15.3918C6.10149 15.5179 6.35536 15.588 6.61493 15.596C6.86525 15.5808 7.10991 15.5152 7.33418 15.4029C7.55845 15.2907 7.7577 15.1343 7.91993 14.943C8.10093 14.762 12.2709 10.411 12.2709 10.411C11.2636 9.43758 10.1849 8.54075 9.04393 7.72803C8.89684 7.6463 8.73297 7.5994 8.56492 7.59095C8.39687 7.58249 8.22911 7.6127 8.07457 7.67925C7.92002 7.7458 7.78281 7.84692 7.67348 7.97482C7.56414 8.10273 7.48561 8.25401 7.44393 8.41703C7.22487 9.85909 7.22487 11.326 7.44393 12.768L5.84393 11.168C5.51504 10.7618 5.34792 10.2483 5.37469 9.72625C5.40145 9.20424 5.62021 8.71053 5.98892 8.34003C6.68721 7.52113 7.67357 7.00199 8.74393 6.89003H11.0739C12.2849 7.06367 13.4122 7.60832 14.3009 8.44903C14.4139 8.2823 14.4996 8.09868 14.5549 7.90503C14.5549 7.10503 14.5189 4.96803 14.5189 4.96803C13.4309 3.76803 13.2859 2.53903 13.8299 2.03103C14.8449 0.908031 15.2079 0.582031 15.2079 0.582031C15.3037 1.54785 15.7409 2.44781 16.4409 3.12003ZM9.22593 14.72C8.88399 15.1316 8.47896 15.4863 8.02592 15.771H14.5519C16.3289 15.771 15.9659 14.683 15.6399 14.14C14.8551 12.9778 13.9563 11.8968 12.9569 10.913C12.9569 10.913 9.29793 14.649 9.22593 14.722V14.72Z" fill="white" fill-opacity="0.32"/>
<path d="M1.75852 20.6311H0.70752C1.08482 20.8701 1.39371 21.2028 1.60403 21.5968C1.81435 21.9908 1.91892 22.4326 1.90752 22.8791V28.0641C1.91268 29.728 2.5538 31.327 3.69958 32.5336C4.84536 33.7401 6.40909 34.463 8.07052 34.5541H10.8625C11.4754 34.6002 12.0908 34.5066 12.6624 34.2806C13.234 34.0546 13.7469 33.7019 14.1625 33.2491C14.5309 32.9059 14.8798 32.5423 15.2075 32.1601C15.6174 31.7845 15.9402 31.3237 16.1532 30.8101C16.3662 30.2965 16.4642 29.7426 16.4405 29.1871V27.5201C16.436 27.0338 16.3191 26.5551 16.099 26.1214C15.8788 25.6877 15.5614 25.3108 15.1715 25.0201C14.8455 24.6941 14.1925 24.0771 14.1925 24.0771V27.5581C14.5171 27.9222 14.8684 28.2614 15.2435 28.5731C15.5247 28.8035 15.7295 29.1136 15.831 29.4627C15.9325 29.8117 15.926 30.1834 15.8122 30.5286C15.6985 30.8739 15.4829 31.1766 15.1937 31.3969C14.9046 31.6173 14.5556 31.7449 14.1925 31.7631H7.99252C6.55964 31.7443 5.19132 31.1641 4.18159 30.1473C3.17186 29.1304 2.6013 27.7581 2.59252 26.3251V23.4591C2.62952 20.6311 1.75852 20.6311 1.75852 20.6311Z" fill="white" fill-opacity="0.32"/>
<path d="M8.61127 27.0125C8.61127 27.5925 6.68927 29.1875 6.58127 29.2605C6.47227 28.6075 5.92827 27.9195 4.55127 26.5055L6.61727 24.4385C7.99427 25.8165 8.61127 26.1385 8.61127 27.0125Z" fill="white" fill-opacity="0.32"/>
<path d="M42.9107 27.3033H39.6107C38.5597 27.3033 38.6677 26.4333 38.5597 25.7033V20.9943C38.5597 20.9943 39.2847 20.9583 40.1187 20.9583C41.2084 20.8395 42.3099 21.015 43.3087 21.4663C43.0288 20.8647 42.5757 20.3604 42.0073 20.018C41.439 19.6756 40.7814 19.5106 40.1187 19.5443H38.5957V17.9853C38.5957 17.9853 38.5957 16.6443 38.2697 16.3173H40.4447C42.3297 16.3173 43.7447 16.2813 45.2667 17.2963C45.2667 17.2963 44.9407 14.8313 41.3507 14.8313H34.2817C34.6936 15.2496 35.0132 15.7497 35.2199 16.2991C35.4266 16.8486 35.5158 17.4352 35.4817 18.0213L35.5177 26.6143C35.5177 28.7893 36.3877 28.8263 36.3877 28.8263H43.4217C43.6771 28.8565 43.9359 28.835 44.1829 28.7633C44.4298 28.6916 44.6598 28.571 44.8593 28.4088C45.0588 28.2465 45.2237 28.0458 45.3441 27.8187C45.4646 27.5915 45.5383 27.3425 45.5607 27.0863L45.5967 26.2863C45.2566 26.65 44.8376 26.9308 44.372 27.1071C43.9063 27.2834 43.4064 27.3505 42.9107 27.3033Z" fill="white" fill-opacity="0.32"/>
<path d="M61.5475 26.5769V20.5949C61.5475 18.2749 59.6255 17.6219 58.2475 17.6219C57.629 17.6399 57.0331 17.8582 56.5493 18.2439C56.0655 18.6297 55.7199 19.162 55.5645 19.7609C55.3431 19.1244 54.9256 18.5745 54.372 18.1902C53.8184 17.8058 53.1573 17.6069 52.4835 17.6219C51.8412 17.633 51.2194 17.8505 50.7102 18.2422C50.2009 18.6338 49.8312 19.1789 49.6555 19.7969C49.6555 19.7969 49.5835 17.6969 47.7705 17.6969H45.9575C45.9575 17.6969 47.0085 18.0969 47.0085 19.9089V26.5799C47.0085 28.7549 47.9145 28.8279 47.9145 28.8279H50.8515C50.5078 28.5612 50.2284 28.2208 50.0338 27.8317C49.8393 27.4426 49.7346 27.0148 49.7275 26.5799V20.5949C49.8488 20.2336 50.0839 19.9214 50.3976 19.705C50.7113 19.4887 51.0867 19.3798 51.4675 19.3949C51.8725 19.4219 52.2519 19.6026 52.5281 19.9C52.8043 20.1974 52.9565 20.589 52.9535 20.9949V26.5059C52.9535 28.7179 53.8595 28.7539 53.8595 28.7539H56.7965C56.4529 28.4872 56.1734 28.1468 55.9789 27.7577C55.7844 27.3686 55.6797 26.9408 55.6725 26.5059V20.5959C55.7401 20.3881 55.8483 20.1958 55.9908 20.0302C56.1333 19.8646 56.3073 19.7289 56.5027 19.6311C56.6981 19.5334 56.9109 19.4754 57.1289 19.4606C57.3469 19.4458 57.5657 19.4744 57.7725 19.5449C58.1056 19.6432 58.4 19.8426 58.6149 20.1154C58.8299 20.3882 58.9548 20.721 58.9725 21.0679V26.5429C59.0085 28.7909 59.8785 28.7549 59.8785 28.7549H62.8575C62.458 28.5511 62.1239 28.2391 61.8931 27.8545C61.6624 27.4699 61.5444 27.0283 61.5525 26.5799L61.5475 26.5769Z" fill="white" fill-opacity="0.32"/>
<path d="M66.6963 26.5782C66.6914 27.0153 66.7908 27.4472 66.9863 27.8382C67.1818 28.2291 67.4677 28.5678 67.8203 28.8262H64.8473C64.8473 28.8262 63.9413 28.8622 63.9413 26.6142V19.8712C63.9413 18.0942 62.9263 17.6592 62.9263 17.6592H64.7393C65.3923 17.6592 66.6613 17.6592 66.6613 20.1242L66.6973 26.5772L66.6963 26.5782Z" fill="white" fill-opacity="0.32"/>
<path d="M75.7898 18.5293C75.6485 18.2644 75.432 18.0471 75.1676 17.9048C74.9033 17.7625 74.6028 17.7014 74.3038 17.7292C72.4188 17.7292 72.0198 19.9043 72.0198 19.9043C71.8748 18.1643 71.4398 17.6562 70.0978 17.6562H68.2898C68.2898 17.6562 69.3408 18.0562 69.3408 19.8682V26.5392C69.3408 28.7142 70.2468 28.7873 70.2468 28.7873H73.2198C72.8761 28.5206 72.5966 28.1802 72.4021 27.7911C72.2076 27.402 72.1029 26.9742 72.0958 26.5392V21.1032C72.1233 20.8731 72.2029 20.6523 72.3285 20.4575C72.4541 20.2628 72.6225 20.0992 72.8208 19.9792C73.2896 19.6543 73.864 19.5185 74.4287 19.5992C74.9934 19.6798 75.5067 19.971 75.8658 20.4142C75.9038 20.4512 75.7898 18.5293 75.7898 18.5293Z" fill="white" fill-opacity="0.32"/>
<path d="M89.5006 18.9282C90.1078 18.926 90.7059 19.0755 91.2406 19.3632V17.6952H88.8076V15.1572C88.261 15.993 87.5884 16.7392 86.8136 17.3692C85.9904 17.9635 85.1171 18.4851 84.2036 18.9282L86.0886 18.9642V26.6862C86.0886 28.8612 86.9946 28.8612 86.9946 28.8612H89.9316C89.5946 28.599 89.3144 28.271 89.1081 27.8971C88.9018 27.5231 88.7737 27.1112 88.7316 26.6862V18.9282H89.5006Z" fill="white" fill-opacity="0.32"/>
<path d="M98.4893 22.3009C96.8213 24.0009 95.5163 23.7509 94.5013 25.0559C94.5544 25.5307 94.7161 25.9869 94.9738 26.3892C95.2315 26.7915 95.5782 27.1291 95.9873 27.3759C96.2918 27.5254 96.623 27.613 96.9617 27.6335C97.3003 27.654 97.6397 27.6071 97.96 27.4955C98.2804 27.3838 98.5754 27.2097 98.8279 26.9832C99.0805 26.7567 99.2856 26.4823 99.4313 26.1759V27.9909C99.4313 27.9909 98.7063 28.8969 96.2413 28.8969C93.3043 28.8969 91.3833 26.6489 91.3833 23.5309C91.3833 20.5219 92.9833 17.6939 96.0603 17.6939C99.0693 17.5849 100.628 20.0509 98.4893 22.2939V22.3009ZM96.6763 21.5759C97.1843 20.6699 97.5823 18.3859 95.8763 18.5309C93.9543 18.6759 94.3173 23.8239 94.3173 23.8239C94.9363 23.1009 95.9513 22.9159 96.6763 21.5739V21.5759Z" fill="white" fill-opacity="0.32"/>
<path d="M65.3167 16.7523C65.6716 16.7392 66.0072 16.5878 66.252 16.3305C66.4967 16.0731 66.6311 15.7303 66.6264 15.3752C66.6217 15.0201 66.4783 14.6809 66.2268 14.4302C65.9753 14.1794 65.6358 14.037 65.2807 14.0333C65.0994 14.0314 64.9195 14.0658 64.7517 14.1344C64.5839 14.203 64.4315 14.3045 64.3035 14.4329C64.1755 14.5613 64.0744 14.714 64.0062 14.882C63.9381 15.05 63.9042 15.2299 63.9066 15.4112C63.909 15.5925 63.9476 15.7715 64.0202 15.9376C64.0928 16.1038 64.1979 16.2537 64.3293 16.3787C64.4606 16.5036 64.6157 16.601 64.7852 16.6652C64.9548 16.7294 65.1355 16.759 65.3167 16.7523Z" fill="white" fill-opacity="0.32"/>
<path d="M78.8408 27.5566C78.4911 27.5194 78.1698 27.3469 77.9455 27.0759C77.7213 26.805 77.6119 26.4571 77.6408 26.1066C77.6408 23.3146 79.8888 22.9166 80.5778 22.1906V26.9006C80.3575 27.1352 80.0864 27.3162 79.7853 27.4299C79.4843 27.5436 79.1612 27.5869 78.8408 27.5566ZM80.5408 21.1756C79.8518 22.3756 74.5228 22.6256 75.3198 26.7586C75.4623 27.303 75.7619 27.7934 76.1813 28.1686C76.6007 28.5438 77.1214 28.7872 77.6782 28.8683C78.2351 28.9495 78.8035 28.8649 79.3126 28.625C79.8217 28.3852 80.2488 28.0007 80.5408 27.5196C80.7218 28.7526 81.3748 28.8606 81.3748 28.8606H84.3478C83.9981 28.6022 83.7094 28.2701 83.502 27.8879C83.2947 27.5057 83.1738 27.0826 83.1478 26.6486V20.3416C83.1478 18.8556 81.4798 17.6946 79.7038 17.6946C78.7136 17.6724 77.74 17.9514 76.9118 18.4946V20.4166C77.0803 19.9783 77.3719 19.5981 77.7513 19.3215C78.1308 19.045 78.582 18.8839 79.0508 18.8576C80.5368 18.8576 80.6508 19.5826 80.6508 19.9816C80.7506 20.1707 80.7934 20.3848 80.7741 20.5977C80.7547 20.8107 80.674 21.0135 80.5418 21.1816L80.5408 21.1756Z" fill="white" fill-opacity="0.32"/>
<path d="M105.016 25.8158C104.999 26.0805 104.929 26.339 104.809 26.5756C104.69 26.8122 104.523 27.0218 104.319 27.1916C104.116 27.3613 103.879 27.4877 103.625 27.5629C103.371 27.6381 103.104 27.6605 102.841 27.6288C102.368 27.6004 101.913 27.439 101.528 27.1631C101.143 26.8873 100.843 26.5083 100.665 26.0698V28.0278C101.498 28.5594 102.468 28.8374 103.457 28.8278C105.451 28.8278 107.518 27.3048 107.481 25.1658C107.462 24.4679 107.221 23.7943 106.792 23.2438C105.955 22.3528 104.959 21.6272 103.855 21.1048C103.638 20.9757 103.452 20.8019 103.308 20.595C103.164 20.388 103.066 20.1527 103.021 19.9048C102.985 19.5418 103.202 18.7808 104.689 18.7808C105.149 18.8198 105.589 18.9863 105.96 19.2617C106.331 19.5371 106.618 19.9104 106.789 20.3398V18.4558C105.966 17.8876 104.996 17.5727 103.997 17.5498C102.22 17.5498 100.625 18.7498 100.697 20.1968C100.69 20.795 100.84 21.3845 101.133 21.9062C101.426 22.428 101.851 22.8637 102.365 23.1698C102.85 23.5181 103.359 23.8332 103.888 24.1128C104.2 24.282 104.466 24.5256 104.662 24.8221C104.858 25.1186 104.978 25.4589 105.012 25.8128L105.016 25.8158Z" fill="white" fill-opacity="0.32"/>
</g>
<defs>
<clipPath id="clip0_937_4540">
<rect width="106.773" height="36.836" fill="white" transform="translate(0.70752 0.582031)"/>
</clipPath>
</defs>
</svg>
