<svg width="127" height="22" viewBox="0 0 127 22" fill="none" xmlns="http://www.w3.org/2000/svg">
<g clip-path="url(#clip0_937_4531)">
<path d="M15.043 8.86041H14.878C14.845 8.96041 14.746 9.06041 14.678 9.22241C16.1899 9.22314 17.699 9.3553 19.188 9.61741L18.727 10.0784C17.3775 9.85408 16.0129 9.73306 14.645 9.71641H14.345C14.2419 9.8251 14.1535 9.9468 14.082 10.0784H14.839C16.0404 10.0965 17.2392 10.1968 18.427 10.3784L17.966 10.8064C16.929 10.6732 15.8845 10.6064 14.839 10.6064C14.477 10.6064 14.049 10.6064 13.687 10.6394C13.5827 10.7852 13.4612 10.9178 13.325 11.0344C13.8913 10.948 14.4645 10.9145 15.037 10.9344C15.926 10.9344 16.847 11.0344 17.67 11.0994L17.209 11.4944C16.5661 11.4002 15.9168 11.3561 15.267 11.3624C13.7499 11.3331 12.2553 11.7324 10.955 12.5144C11.6676 13.2276 12.5144 13.7926 13.4466 14.1768C14.3788 14.5609 15.3778 14.7565 16.386 14.7524H16.616L15.925 15.4434C12.8472 14.8103 9.91956 13.5923 7.301 11.8554C5.64633 10.6349 3.85734 9.60789 1.969 8.79441V8.30041L3.286 8.89241L3.747 8.53041L8.026 10.5054L7.796 10.7354L5.6 9.74941L5.37 9.94941L6.522 10.5744C7.24027 11.0408 8.06717 11.3129 8.922 11.3644C10.436 11.3644 11.786 10.2784 12.609 8.46441C13.3286 8.3651 14.0547 8.32098 14.781 8.33241C16.537 8.33815 18.2889 8.5035 20.015 8.82641L19.521 9.28741C18.0442 9.01297 16.546 8.86974 15.044 8.85941M10.83 21.1704C8.81558 21.1769 6.84457 20.5851 5.16692 19.47C3.48926 18.355 2.1805 16.7668 1.4066 14.907C0.63269 13.0471 0.42849 10.9993 0.819888 9.02328C1.21129 7.04723 2.18065 5.2319 3.60508 3.80748C5.0295 2.38306 6.84482 1.41369 8.82087 1.02229C10.7969 0.630895 12.8447 0.835095 14.7045 1.609C16.5644 2.38291 18.1525 3.69166 19.2676 5.36932C20.3827 7.04698 20.9745 9.01798 20.968 11.0324C20.9611 13.7191 19.8908 16.2937 17.9911 18.1935C16.0913 20.0932 13.5167 21.1635 10.83 21.1704ZM10.83 0.17041C8.68803 0.17041 6.59416 0.805579 4.81318 1.99559C3.03219 3.18561 1.64409 4.87703 0.82439 6.85595C0.00469249 8.83487 -0.209778 11.0124 0.2081 13.1132C0.625978 15.2141 1.65744 17.1438 3.17204 18.6584C4.68664 20.173 6.61636 21.2044 8.71718 21.6223C10.818 22.0402 12.9955 21.8257 14.9745 21.006C16.9534 20.1863 18.6448 18.7982 19.8348 17.0172C21.0248 15.2363 21.66 13.1424 21.66 11.0004C21.6579 8.12877 20.5162 5.37534 18.4856 3.34478C16.4551 1.31422 13.7016 0.172529 10.83 0.17041ZM39.5 15.3774H45.688V18.2704H36.142V3.82441H39.5V15.3774ZM53.193 7.80741H56.32V18.2704H53.42V17.0894C53.1229 17.5987 52.6859 18.0121 52.1609 18.2805C51.6359 18.5489 51.0448 18.6609 50.458 18.6034C47.758 18.6034 46.409 17.4514 46.409 13.9954V7.80741H49.569V13.6994C49.569 15.0814 50.162 15.7074 51.412 15.7074C52.531 15.7074 53.255 15.1154 53.255 13.6994L53.189 7.80741H53.193ZM58.723 7.44541C58.723 4.94541 60.336 3.59441 62.805 3.59441C63.2477 3.58634 63.6897 3.63065 64.122 3.72641V6.22641C64.122 6.22641 63.661 6.19341 63.299 6.19341C62.312 6.19341 61.785 6.55541 61.785 7.44441V7.84041H64.085V10.3404H61.817V18.2074H58.657V10.3704H57.11V7.87041H58.657L58.723 7.44241M69.623 7.80441H71.993V10.3044H69.593V14.3534C69.593 15.4724 70.186 15.7354 71.107 15.7354C71.3946 15.725 71.6808 15.6916 71.963 15.6354V18.1354C71.4655 18.243 70.958 18.2983 70.449 18.3004C67.949 18.3004 66.466 17.1814 66.466 14.6134V10.3414H64.911V7.84041H66.458V4.81141H69.585L69.623 7.80441ZM78.9 7.54341C81.533 7.54341 82.949 8.69541 82.949 12.1514V18.2704H79.79V12.3494C79.79 10.9674 79.198 10.3414 77.881 10.3414C76.729 10.3414 76.038 10.9334 76.038 12.3494V18.2414H72.943V3.85741H76.1V8.85741C76.4005 8.40161 76.8208 8.03751 77.3148 7.80516C77.8088 7.5728 78.3573 7.48119 78.9 7.54041M90.882 14.1894C90.882 15.3084 89.796 16.1314 88.15 16.1314C87.327 16.1314 86.866 15.7694 86.866 15.0454C86.866 14.4854 87.228 14.0584 88.248 13.9264L90.058 13.7264C90.358 13.6934 90.683 13.5944 90.881 13.5614C90.883 13.5344 90.883 14.1924 90.883 14.1924L90.882 14.1894ZM89.105 7.54341C86.011 7.54341 84.595 8.69541 84.431 10.9334H87.431C87.464 10.3414 87.793 9.88041 89.077 9.88041C90.196 9.88041 90.723 10.2424 90.723 10.7694C90.723 11.2964 90.423 11.4274 89.637 11.5594L87.695 11.7594C84.995 12.0594 83.811 13.1414 83.811 15.1824C83.811 17.0254 84.963 18.4744 87.399 18.4744C88.0738 18.5185 88.7489 18.3942 89.3637 18.1127C89.9785 17.8311 90.5136 17.4011 90.921 16.8614V18.1454H93.785V11.2654C93.818 8.53341 92.172 7.54541 89.111 7.54541M101.06 7.54541C103.792 7.54541 105.175 8.69741 105.175 12.1534V18.2704H102.048V12.3494C102.048 10.9674 101.456 10.3414 100.139 10.3414C98.987 10.3414 98.296 10.9334 98.296 12.3494V18.2414H95.228V7.84041H98.128V8.99241C98.49 8.23541 99.346 7.54441 101.058 7.54441M111.69 11.7244C114.323 12.0864 115.673 12.8764 115.673 15.0814C115.673 17.2864 114.126 18.6034 110.834 18.6034C107.279 18.6034 105.995 17.1554 105.934 15.0814H109.028C109.128 15.8714 109.62 16.2004 110.871 16.2004C112.122 16.2004 112.616 15.9004 112.616 15.3444C112.616 14.7884 112.216 14.5544 111.102 14.4554L110.016 14.3234C107.716 13.9614 106.428 13.1054 106.428 11.0314C106.428 9.08941 107.909 7.54241 110.938 7.54241C113.802 7.54241 115.316 8.66141 115.448 10.9324H112.448C112.316 10.3404 111.987 9.94541 110.934 9.94541C109.881 9.94541 109.486 10.3074 109.486 10.7684C109.486 11.2294 109.686 11.4594 110.605 11.5914L111.691 11.7234M123.475 14.1924C123.475 15.3114 122.389 16.1344 120.743 16.1344C119.92 16.1344 119.459 15.7724 119.459 15.0484C119.459 14.4884 119.821 14.0614 120.841 13.9294L122.651 13.7294C122.951 13.6964 123.276 13.5974 123.474 13.5644L123.475 14.1924ZM121.763 7.54341C118.669 7.54341 117.253 8.69541 117.089 10.9334H120.089C120.122 10.3414 120.451 9.88041 121.735 9.88041C122.854 9.88041 123.381 10.2424 123.381 10.7694C123.381 11.2964 123.081 11.4274 122.295 11.5594L120.353 11.7594C117.653 12.0594 116.469 13.1414 116.469 15.1824C116.469 17.0254 117.621 18.4744 120.123 18.4744C120.798 18.5186 121.473 18.3944 122.088 18.1128C122.703 17.8312 123.238 17.4012 123.645 16.8614V18.1454H126.476V11.2654C126.443 8.53341 124.764 7.54541 121.769 7.54541" fill="white" fill-opacity="0.32"/>
</g>
<defs>
<clipPath id="clip0_937_4531">
<rect width="126.465" height="21.659" fill="white" transform="translate(0 0.17041)"/>
</clipPath>
</defs>
</svg>
