<svg width="117" height="41" viewBox="0 0 117 41" fill="none" xmlns="http://www.w3.org/2000/svg">
<path d="M16.4918 28.5529C17.0314 30.6404 19.3581 32.2566 21.1116 32.2566V32.5596H17.5372C14.5697 32.5596 11.9732 30.5731 11.1976 27.6774L4.95921 4.47878C4.38595 2.39124 1.99175 0.775076 0.271973 0.775076V0.472046H3.88014C6.88132 0.472046 9.47785 2.49225 10.2534 5.3542L16.4918 28.5529Z" fill="white"/>
<path d="M20.6058 8.82222V8.51919H28.2943V8.82222C26.5745 8.82222 24.1803 10.4384 23.607 12.5259H23.2024C23.7756 10.4384 22.3256 8.82222 20.6058 8.82222Z" fill="white"/>
<path d="M33.8063 29.2936C33.8063 31.4149 32.8958 32.2566 31.176 32.2566V32.5596H41.1238V32.2566C39.404 32.2566 38.5272 31.4149 38.5272 29.2936V16.1623L31.176 18.1152V18.4182C32.8958 18.2499 33.8063 19.5967 33.8063 21.6842V29.2936Z" fill="white"/>
<path d="M33.1993 10.2364C33.1993 11.8526 34.5144 13.1657 36.1668 13.1657C37.7854 13.1657 39.1005 11.8526 39.1005 10.2364C39.1005 8.58657 37.7854 7.27344 36.1668 7.27344C34.5144 7.27344 33.1993 8.58657 33.1993 10.2364Z" fill="white"/>
<path d="M64.2387 24.3777C64.2387 19.3272 60.4282 16.1622 56.4154 16.1622C55.741 16.1622 55.3363 16.2632 55.3363 16.2632V16.5663C57.8992 16.2632 59.1806 19.6302 59.1806 24.3777C59.1806 29.0915 57.8992 32.4585 55.3363 32.1555V32.4585C55.3363 32.4585 55.741 32.5595 56.4154 32.5595C60.4282 32.5595 64.2387 29.3946 64.2387 24.3777Z" fill="white"/>
<path d="M55.134 40.169C53.4142 40.169 52.5375 39.3272 52.5375 37.206V16.1622L45.1863 18.1151V18.4181C46.9061 18.2498 47.8165 19.5966 47.8165 21.6841V37.206C47.8165 39.3272 46.9061 40.169 45.1863 40.169V40.472H55.134V40.169Z" fill="white"/>
<path d="M102.908 39.3606C103.268 39.4403 103.631 39.4802 103.998 39.4802C104.677 39.4802 105.299 39.3367 105.866 39.0498C106.441 38.7708 106.952 38.3523 107.399 37.7943C107.846 37.2363 108.217 36.5428 108.513 35.7138L116.272 14.2277H114.704L108.86 30.7159H108.74L102.896 14.2277H101.328L108.069 32.8442L107.231 35.1399C106.904 36.0646 106.505 36.766 106.034 37.2443C105.563 37.7226 105.02 38.0015 104.405 38.0813C103.798 38.161 103.12 38.0573 102.369 37.7704L101.938 39.0498C102.226 39.1773 102.549 39.2809 102.908 39.3606Z" fill="white"/>
<path d="M94.7539 8.10596V32.5933H93.293V8.10596H94.7539Z" fill="white"/>
<path d="M72.0259 8.10596V32.5933H73.5227V21.0311H84.5755V19.6442H73.5227V9.49293H85.7131V8.10596H72.0259Z" fill="white"/>
</svg>
