<svg width="112" height="32" viewBox="0 0 112 32" fill="none" xmlns="http://www.w3.org/2000/svg">
<g clip-path="url(#clip0_937_4534)">
<path d="M20.8543 28.2444H19.3413L20.1143 26.3944L20.8543 28.2444ZM21.7963 30.3634H22.9393C22.5693 29.6574 22.1663 28.5134 21.7963 27.8074C21.5613 27.1014 21.0903 26.0584 20.7203 25.0164H20.2833C20.0483 25.5884 19.7113 26.6644 18.9043 28.4164L17.9963 30.3964H18.7023C18.8373 29.9594 19.0723 29.3204 19.2743 28.7484H21.0903L21.4603 29.5214L21.7963 30.3634ZM23.5453 26.8634C23.5745 28.0318 23.5294 29.2008 23.4103 30.3634H24.5533C24.4229 29.5181 24.3776 28.6618 24.4183 27.8074C24.3899 26.9195 24.4351 26.0308 24.5533 25.1504H23.4103C23.5147 25.7159 23.5599 26.2906 23.5453 26.8654M28.1523 27.8404C28.4993 27.8122 28.823 27.6548 29.0596 27.3995C29.2962 27.1442 29.4285 26.8095 29.4303 26.4614C29.4367 26.3121 29.4063 26.1635 29.3418 26.0288C29.2773 25.894 29.1806 25.7771 29.0603 25.6884C28.9108 25.5434 28.73 25.4346 28.5319 25.3705C28.3337 25.3063 28.1235 25.2885 27.9173 25.3184H25.8323V27.4374C25.8545 28.4929 25.8094 29.5487 25.6973 30.5984H26.7403V28.1434H27.0093C27.4463 28.7154 27.9173 29.4214 28.2873 29.9934C28.387 30.1984 28.5112 30.3905 28.6573 30.5654H29.9353C29.4983 29.9934 29.2293 29.6574 28.6573 28.8164C28.5223 28.6814 28.4223 28.3794 28.2873 28.2444C28.3203 28.1774 28.1523 27.8404 28.1523 27.8404ZM26.9083 25.4524H27.4803C27.608 25.439 27.737 25.453 27.8588 25.4935C27.9805 25.5341 28.0922 25.6002 28.1863 25.6874C28.3519 25.828 28.4698 26.0165 28.5237 26.2269C28.5777 26.4373 28.5651 26.6592 28.4876 26.8621C28.4102 27.065 28.2717 27.239 28.0913 27.3599C27.9109 27.4808 27.6975 27.5429 27.4803 27.5374H26.9083V25.4524ZM32.1203 28.6134C31.7503 27.5374 31.3473 26.0574 31.0443 25.1134H29.8963C30.2011 25.8017 30.4593 26.5096 30.6693 27.2324C30.9807 28.0673 31.2388 28.921 31.4423 29.7884L31.6773 30.3604H32.2823C32.3858 29.9733 32.5093 29.5917 32.6523 29.2174C32.9229 28.5233 33.1585 27.8161 33.3583 27.0984L33.5933 26.5264C33.7343 26.8216 33.8578 27.1248 33.9633 27.4344C34.0983 27.6694 34.4003 28.8134 34.5353 29.0824C34.6703 29.4524 34.6703 29.5194 34.9723 30.4614H35.6783C35.9583 29.7479 36.1941 29.0179 36.3843 28.2754C36.8213 27.1324 37.0903 26.4254 37.5273 25.2824H36.8213C36.5863 26.3584 36.3843 26.7954 36.2493 27.4014C35.8793 28.4774 35.8793 28.5444 35.6773 29.1504C35.4423 28.4444 35.2403 27.8724 34.9713 27.1664C34.625 26.5431 34.365 25.8757 34.1983 25.1824H33.4963C33.2613 26.0904 32.4203 28.3434 32.3533 28.5824L32.2183 29.0824L32.1183 28.6114L32.1203 28.6134ZM39.7873 28.2434H38.2743L39.0813 26.3934L39.7873 28.2434ZM40.7293 30.3624H41.8723C41.5023 29.6564 41.0993 28.5124 40.7293 27.8064C40.4943 27.1004 40.0233 26.0574 39.6533 25.0154H39.2163C38.9813 25.5874 38.6443 26.6634 37.8373 28.4154L36.9293 30.3994H37.6353C37.7693 29.9624 38.0053 29.3234 38.2073 28.7514H40.0233L40.3933 29.5244L40.7293 30.3654V30.3624ZM43.8903 28.2434C43.8903 28.1084 43.8903 28.1084 44.0253 28.0084C44.3953 27.4364 44.5973 26.8654 44.9333 26.3604C45.0683 26.1254 45.6393 25.2844 45.7063 25.0824H44.8963C44.3243 26.2254 44.1903 26.5954 43.6183 27.6384C42.9123 26.4954 42.7103 25.8894 42.2393 25.0824H41.0963C41.4663 25.7884 42.1723 26.8314 42.4753 27.4704L42.9123 28.2434V30.3624H43.9543V28.1434L43.8873 28.2434H43.8903ZM46.2103 29.1854C46.229 29.3236 46.2177 29.4642 46.1772 29.5975C46.1366 29.7309 46.0678 29.854 45.9753 29.9584C46.398 30.1922 46.8714 30.3192 47.3543 30.3284C47.594 30.3581 47.8372 30.3384 48.0689 30.2706C48.3007 30.2028 48.5161 30.0882 48.7019 29.9341C48.8878 29.7799 49.0401 29.5893 49.1496 29.374C49.259 29.1588 49.3232 28.9234 49.3383 28.6824C49.3534 28.4873 49.3283 28.2912 49.2647 28.1061C49.2011 27.9211 49.1002 27.751 48.9683 27.6064C48.6705 27.3185 48.2976 27.1202 47.8923 27.0344C47.1863 26.7994 46.8163 26.5974 46.8163 26.1264C46.8221 26.0149 46.8505 25.9058 46.8999 25.8056C46.9494 25.7055 47.0187 25.6166 47.1037 25.5442C47.1887 25.4718 47.2876 25.4176 47.3943 25.3848C47.5011 25.352 47.6134 25.3413 47.7243 25.3534C47.9545 25.3465 48.1811 25.4105 48.3736 25.5368C48.5661 25.6631 48.7151 25.8456 48.8003 26.0594H48.9353L49.1703 25.3534C48.7763 25.1419 48.3423 25.0155 47.8963 24.9824C46.5173 24.9824 46.1473 25.7554 46.1473 26.4954C46.1344 26.7916 46.2152 27.0843 46.3782 27.3319C46.5412 27.5794 46.7782 27.7693 47.0553 27.8744C47.2903 28.0094 47.6273 28.1094 47.8283 28.2444C47.9633 28.3794 48.4003 28.4794 48.4003 29.1524C48.4003 29.7244 48.0303 30.0604 47.3243 30.0604C47.0243 30.0944 46.6853 29.9934 46.2143 29.1864L46.2103 29.1854Z" fill="white" fill-opacity="0.32"/>
<path d="M3.63536 15.0287C3.63536 9.24474 6.79636 7.72874 9.11636 7.72874C12.8494 7.72874 14.4634 10.8897 14.4634 14.2527C14.5733 16.0305 14.1769 17.8031 13.3204 19.3647C12.8631 20.0609 12.2461 20.6378 11.5207 21.0472C10.7954 21.4567 9.98269 21.6869 9.15036 21.7187C4.95036 21.6187 3.63536 17.5487 3.63536 15.0267M15.1704 26.8657C15.9813 26.3334 16.8364 25.8717 17.7264 25.4857L12.4464 22.1857C15.6074 21.0477 17.6584 18.2567 17.6584 14.2857C17.6584 8.80474 13.4884 6.38574 9.15036 6.38574C4.50936 6.38574 0.608357 8.97474 0.608357 14.7927C0.544038 15.8328 0.696218 16.8748 1.05528 17.853C1.41434 18.8312 1.97246 19.7243 2.69436 20.4757C3.54476 21.2798 4.54943 21.903 5.64759 22.3076C6.74575 22.7122 7.91457 22.8898 9.08336 22.8297H9.85836C9.92436 22.7967 15.1704 26.8657 15.1704 26.8657ZM28.4204 16.0377C27.7144 16.0377 27.0414 16.1727 26.3014 16.1727C25.5284 16.1727 24.6534 16.0377 23.9134 16.0377L26.2334 10.3547L28.4204 16.0377ZM30.9764 22.4607C31.4134 22.4607 32.0524 22.3257 32.7254 22.3257C33.4314 22.3257 34.1044 22.4607 34.4744 22.4607C33.3644 20.2747 31.8854 16.7777 31.0744 14.7607C30.3014 12.7767 28.8884 9.64874 27.8464 6.52174C27.6289 6.63379 27.3838 6.68067 27.1404 6.65674C26.8759 6.66977 26.6118 6.62365 26.3674 6.52174C25.7954 8.37174 24.5174 11.4317 22.1974 16.6437L19.4394 22.5957C19.8094 22.5957 20.1454 22.4607 20.5154 22.4607C20.8854 22.4607 21.2884 22.5957 21.5914 22.5957C22.1008 20.8988 22.7188 19.2364 23.4414 17.6187C24.3494 17.6187 25.2914 17.4837 26.2324 17.4837C27.1983 17.4616 28.1647 17.5067 29.1244 17.6187L30.0324 20.0067L30.9744 22.4617L30.9764 22.4607ZM41.1664 10.8247V8.26874C42.8144 8.26874 44.4284 8.26874 45.6724 8.40374C45.5751 8.15798 45.5291 7.89492 45.5374 7.63074C45.5311 7.32265 45.5768 7.0157 45.6724 6.72274C43.6716 6.91219 41.6618 6.99064 39.6524 6.95774C37.9034 6.95774 35.3144 6.95774 33.4984 6.82274C33.6052 7.06569 33.6516 7.33095 33.6334 7.59574C33.6543 7.86067 33.6079 8.1266 33.4984 8.36874C34.6414 8.23374 36.8984 8.23374 37.0984 8.23374H38.2414V17.1787C38.2414 18.9277 38.1064 20.6787 38.0064 22.3907C38.5048 22.2948 39.0118 22.2496 39.5194 22.2557C39.7544 22.2557 40.5954 22.3907 41.1674 22.3907L41.1664 10.8247ZM53.9784 16.0367C53.2724 16.0367 52.5994 16.1717 51.8594 16.1717C51.0864 16.1717 50.2114 16.0367 49.4714 16.0367L51.8254 10.3537L53.9784 16.0367ZM56.5004 22.4597C56.9374 22.4597 57.5764 22.3247 58.2494 22.3247C58.9554 22.3247 59.6284 22.4597 59.9984 22.4597C58.9224 20.2737 57.4424 16.7767 56.5984 14.7927C55.8254 12.8087 54.4124 9.68074 53.3364 6.55374C53.1189 6.66579 52.8738 6.71267 52.6304 6.68874C52.3657 6.70431 52.1011 6.65809 51.8574 6.55374C51.2854 8.40374 50.0074 11.4637 47.6874 16.6757L45.0304 22.6277C45.4004 22.6277 45.7364 22.4927 46.1064 22.4927C46.4764 22.4927 46.8794 22.6277 47.1824 22.6277C47.6918 20.9308 48.3098 19.2684 49.0324 17.6507C49.9404 17.6507 50.8824 17.5157 51.8234 17.5157C52.7893 17.4936 53.7557 17.5387 54.7154 17.6507L55.6234 20.0387L56.4974 22.4597H56.5004ZM69.3804 14.6917C71.4994 14.3217 73.3154 12.9427 73.3154 10.3537C73.3069 9.39336 72.9203 8.475 72.2394 7.79774C71.7491 7.37156 71.1768 7.05029 70.5576 6.85371C69.9385 6.65714 69.2857 6.58942 68.6394 6.65474C68.0674 6.65474 65.4784 6.78974 64.8054 6.78974C63.6624 6.78974 63.0564 6.65474 62.4514 6.65474C62.5864 9.54674 62.5864 9.91674 62.5864 12.9437C62.5864 17.3827 62.5864 17.8537 62.3514 22.3597C62.8924 22.2424 63.4465 22.197 63.9994 22.2247C64.5714 22.2247 65.0754 22.3597 65.5124 22.3597C65.5124 21.7877 65.3774 18.7597 65.3774 18.1897V15.0287H65.9494C67.2274 16.7777 68.6064 18.7617 69.7834 20.6107C70.1534 21.1827 70.5564 21.9897 70.9264 22.4607C71.5351 22.3398 72.1565 22.2945 72.7764 22.3257C73.5494 22.3257 74.1554 22.4607 74.8954 22.4607C73.5164 20.6107 72.7764 19.8037 71.0614 17.3487C70.6914 16.9117 70.2884 16.0707 69.9184 15.5997C69.9184 15.6337 69.3804 14.6917 69.3804 14.6917ZM65.4804 7.93274C65.8504 7.93274 66.6234 7.79774 67.1284 7.79774C67.8775 7.75854 68.6197 7.95888 69.2474 8.36974C69.5886 8.65829 69.8509 9.0288 70.0097 9.44649C70.1685 9.86418 70.2187 10.3154 70.1554 10.7577C70.1928 11.1823 70.1368 11.6098 69.9911 12.0103C69.8455 12.4109 69.6139 12.7746 69.3126 13.0759C69.0112 13.3773 68.6475 13.6089 68.247 13.7545C67.8464 13.9001 67.4189 13.9562 66.9944 13.9187C66.4415 13.9435 65.8878 13.8982 65.3464 13.7837V7.93274H65.4804Z" fill="white" fill-opacity="0.32"/>
<path d="M103.581 14.6923C101.934 14.9448 100.27 15.0685 98.6037 15.0623C98.2087 14.8261 97.8271 14.568 97.4607 14.2893C99.5074 14.2841 101.552 14.4177 103.581 14.6893M101.53 9.6453C100.154 9.89932 98.7583 10.0232 97.3597 10.0153C97.7119 9.7718 98.0967 9.57923 98.5027 9.4433C99.5152 9.43858 100.527 9.50541 101.53 9.6433M82.8987 20.5063H79.9727C78.8297 20.5063 77.8537 20.1363 77.8537 19.7333C77.8537 19.2963 78.7617 18.9603 79.9727 18.9603H83.9077C83.2687 19.9023 83.0337 20.3383 82.8987 20.5063ZM83.5037 21.5163C83.8952 21.9755 84.3226 22.4028 84.7817 22.7943C84.7817 22.7943 85.0167 23.0293 85.4877 22.7943C86.1423 22.5247 86.7117 22.0831 87.1357 21.5163C88.7837 21.5163 90.3977 21.6513 92.0457 21.6513C92.3083 22.0148 92.5443 22.3968 92.7517 22.7943C88.0777 22.9293 83.1007 23.0293 80.5447 23.0293C79.4687 23.0293 78.5607 22.6593 78.5607 22.3233C78.5607 21.8863 79.3337 21.6173 80.5447 21.6173C81.5284 21.5281 82.5163 21.4938 83.5037 21.5163ZM81.7867 25.3523C80.8787 25.3523 80.0377 24.9823 80.0377 24.6463C80.0377 24.3463 80.8107 23.9403 81.7867 23.9403C84.3427 23.9403 89.4537 24.0753 93.8597 24.1753C94.0786 24.4592 94.2701 24.7633 94.4317 25.0833C89.8917 25.3523 84.4097 25.3523 81.7867 25.3523ZM96.4167 27.4373C92.6837 27.5723 86.2947 27.6723 83.7387 27.6723C83.0327 27.6723 82.3597 27.4373 82.3597 27.2353C82.3597 27.0333 82.9317 26.7983 83.7387 26.7983C86.2947 26.7983 92.2467 26.9333 95.9457 27.0333C96.0823 27.189 96.241 27.3238 96.4167 27.4333M86.7657 28.8453C88.9517 28.8453 95.6097 28.9803 95.6097 29.2153C95.6097 29.4843 88.9847 29.5853 86.7657 29.5853C86.3287 29.5853 85.9927 29.4503 85.9927 29.2153C85.9257 29.0803 86.2927 28.8453 86.7657 28.8453ZM86.7657 15.4613C83.9747 15.4613 81.5537 15.5963 80.0397 15.5963C78.8967 15.5963 77.9207 15.2263 77.9207 14.8233C77.9207 14.3863 78.8287 14.0503 80.0397 14.0503C81.8897 14.0503 84.9497 14.0503 88.1397 14.1853C87.6191 14.5404 87.1544 14.9711 86.7607 15.4633M100.246 11.8633C101.894 11.9983 102.903 12.0983 102.903 12.0983C101.869 12.3559 100.807 12.4803 99.7417 12.4683C100.112 12.1993 100.242 11.9683 100.242 11.8633M80.6127 12.9063C79.5367 12.9063 78.6287 12.5363 78.6287 12.2003C78.6287 11.7633 79.4017 11.4943 80.6127 11.4943C82.7987 11.4943 86.7667 11.4943 90.7347 11.6293C90.2977 12.0663 89.8267 12.4023 89.3557 12.9073H80.6127M92.5507 10.2173C88.4817 10.3523 84.0427 10.3523 81.7557 10.3523C80.8477 10.3523 80.0067 9.9823 80.0067 9.6463C80.0067 9.2763 80.7797 8.9403 81.7557 8.9403C84.3117 8.9403 89.4227 9.0753 93.8287 9.1753C93.6142 9.35212 93.3767 9.49912 93.1227 9.6123C92.9488 9.82915 92.7575 10.0315 92.5507 10.2173ZM83.6057 7.6613C82.8997 7.6613 82.2267 7.4263 82.2267 7.2243C82.2267 6.9893 82.7987 6.7873 83.6057 6.7873C86.4977 6.6523 93.4587 6.7873 96.9567 7.0223C96.7422 7.19912 96.5047 7.34612 96.2507 7.4593C92.6857 7.5593 86.2967 7.6593 83.6067 7.6593M79.8067 18.0173C78.6637 18.0173 77.6877 17.6473 77.6877 17.2443C77.6877 16.8413 78.5957 16.4713 79.8067 16.4713C81.1857 16.4713 83.4067 16.4713 85.8267 16.6063C85.3897 17.1783 85.0537 17.6823 84.6837 18.1193C82.6657 18.0193 80.9507 18.0193 79.8077 18.0193M85.9277 5.2743C85.9277 5.0393 86.2977 4.9043 86.7007 4.9043C88.8867 4.9043 95.5447 5.0393 95.5447 5.2743C95.5447 5.5433 88.9197 5.6443 86.7007 5.6443C86.4045 5.62703 86.127 5.49417 85.9277 5.2743Z" fill="white" fill-opacity="0.32"/>
<path d="M103.851 16.6092V17.7522C100.017 17.8872 96.2848 18.1222 96.2848 18.4582C96.2848 18.6932 99.8848 18.8952 103.751 19.1642C103.616 19.6012 103.616 20.0722 103.516 20.4422C99.7828 20.5772 96.3158 20.8122 96.3158 21.0142C96.3158 21.2162 99.5778 21.4512 103.21 21.5862C103.075 22.0232 102.84 22.4942 102.638 22.9652C99.4768 23.1002 96.9548 23.3352 96.9548 23.5372C96.9548 23.7722 99.1408 23.9072 102.067 24.1092C101.89 24.3238 101.743 24.5612 101.63 24.8152C101.405 25.0457 101.213 25.3058 101.058 25.5882C99.3088 25.7232 98.0648 25.8232 98.0648 26.0252C98.0648 26.1602 98.8378 26.2602 100.251 26.3952C99.4631 27.1354 98.6073 27.7997 97.6948 28.3792C97.6948 28.3792 96.5518 27.3032 95.5088 26.1932C94.6008 25.1172 92.7178 22.2582 92.3478 21.6872C91.9108 21.1152 91.6418 20.9142 91.0698 21.1152C90.5032 21.3062 89.9162 21.4304 89.3208 21.4852C89.0858 21.4852 88.9508 21.3502 89.3208 21.2502C89.932 21.0301 90.4934 20.6908 90.9725 20.252C91.4517 19.8133 91.8389 19.2838 92.1118 18.6942C93.0198 16.9452 92.2468 14.3562 92.2468 14.3562C92.0701 15.0621 91.697 15.7036 91.1708 16.2062C91.2953 15.6681 91.3089 15.1103 91.2105 14.5668C91.1122 14.0232 90.904 13.5055 90.5988 13.0452L90.1618 14.4242C90.1618 14.4242 89.9268 14.4242 89.4558 14.8612C89.149 15.1675 88.9087 15.5338 88.7498 15.9372C88.9092 15.9635 89.0723 15.9562 89.2286 15.9157C89.385 15.8753 89.5312 15.8025 89.6578 15.7022C89.2196 17.5899 88.4816 19.3952 87.4718 21.0492C87.0825 21.8103 86.4226 22.3981 85.6218 22.6972C85.0498 22.9322 84.9158 22.6972 84.9158 22.6972L83.6378 21.4192H83.7728C84.0078 21.4192 84.5458 20.9822 84.5458 20.7132C84.6808 20.4782 84.6808 20.3432 84.5458 20.3432C84.4108 20.3432 84.4108 20.4782 83.8398 20.7802C83.781 20.8514 83.7048 20.9062 83.6185 20.9393C83.5323 20.9724 83.439 20.9826 83.3477 20.9691C83.2563 20.9555 83.17 20.9185 83.0972 20.8618C83.0243 20.805 82.9673 20.7304 82.9318 20.6452C82.7968 20.5102 82.9318 20.2752 83.0658 20.2082C83.2008 20.0732 85.8568 14.9962 93.1878 9.4802C102.537 2.4522 108.688 0.636196 109.061 0.400196C109.296 0.265196 109.633 0.165196 109.767 0.265196C109.823 0.281156 109.872 0.317543 109.903 0.367269C109.934 0.416995 109.945 0.4765 109.935 0.534196C109.935 0.634196 109.8 0.669196 109.498 0.904196C105.877 2.57753 102.411 4.56936 99.1428 6.8562C96.1498 8.3692 93.3588 10.4562 93.1908 10.4562C92.9558 10.5912 93.0558 10.8262 93.3258 10.6912C98.4378 7.2912 104.356 5.0082 110.88 3.1252C111.25 2.9902 111.317 2.9902 111.452 3.1252C111.587 3.2602 111.587 3.2602 111.587 3.3602C111.587 3.4952 111.452 3.5952 111.217 3.5952C104.117 6.2522 99.0098 8.5722 95.6468 10.8952C95.6468 10.8952 95.2768 11.1302 95.2768 11.3322C95.2768 11.4672 95.5118 11.4672 95.5118 11.4672C97.1598 11.4672 99.4468 11.6022 100.489 11.7022C100.489 11.7022 100.354 12.2742 99.3458 12.6102C98.6471 12.8653 97.8967 12.9459 97.1598 12.8452C97.0248 12.8452 96.7898 12.9802 97.0248 13.2152C96.7558 13.6152 98.2358 16.0402 103.852 16.6152M52.8018 29.5222H51.8938C51.8938 29.5222 51.7588 28.9502 52.1288 28.7492C52.3491 28.5991 52.586 28.4749 52.8348 28.3792V29.5222H52.8018ZM57.2408 27.3022C56.9187 27.5114 56.6149 27.7476 56.3328 28.0082C55.9628 28.3782 56.4678 28.4452 56.4678 28.4452V29.5212H53.6768V25.7212C53.6768 25.7212 52.6008 26.6292 52.6008 26.7972C52.4658 26.9322 52.8358 27.0322 52.8358 27.0322V27.4022C52.8358 27.4022 52.4658 27.6372 51.9278 27.9742C51.4908 28.3442 51.1548 28.6802 51.1548 29.0502C51.1548 29.2852 51.0198 30.4292 51.0198 30.4292H57.4428V27.4042L57.2428 27.3042L57.2408 27.3022ZM51.5908 25.9232C51.9608 25.9232 52.1628 25.7882 52.1628 25.5532C52.1628 25.3182 52.0288 25.1162 51.5908 25.1162C51.2208 25.1162 51.1538 25.2512 51.1538 25.5532C51.1878 25.8222 51.2888 25.9232 51.5908 25.9232ZM52.6668 25.9232C53.0368 25.9232 53.2388 25.7882 53.2388 25.5532C53.2388 25.3182 53.1038 25.1162 52.6668 25.1162C52.2968 25.1162 52.2298 25.2512 52.2298 25.5532C52.3648 25.8222 52.4648 25.9232 52.6668 25.9232ZM54.5838 30.6982C54.2138 30.6982 54.1468 30.8332 54.1468 31.1352C54.1468 31.3702 54.2818 31.5052 54.5838 31.5052C54.9538 31.5052 55.1558 31.3702 55.1558 31.1352C54.9878 30.8352 54.9208 30.6982 54.5838 30.6982ZM55.7268 30.6982C55.3568 30.6982 55.2898 30.8332 55.2898 31.1352C55.2898 31.3702 55.4248 31.5052 55.7268 31.5052C56.0968 31.5052 56.2988 31.3702 56.2988 31.1352C56.2988 30.8352 56.0988 30.6982 55.7268 30.6982ZM69.4138 25.9232C69.7838 25.9232 69.9858 25.7882 69.9858 25.5532C69.9858 25.3182 69.8508 25.1162 69.4138 25.1162C69.0438 25.1162 68.9768 25.2512 68.9768 25.5532C68.9768 25.8222 69.0768 25.9232 69.4138 25.9232ZM70.5908 25.9232C70.9608 25.9232 71.1628 25.7882 71.1628 25.5532C71.1628 25.3182 71.0288 25.1162 70.5908 25.1162C70.2208 25.1162 70.1538 25.2512 70.1538 25.5532C70.1538 25.8222 70.2538 25.9232 70.5908 25.9232ZM73.9538 26.0582C73.8188 26.1932 73.8188 26.4282 74.0888 26.4282V30.5282H74.9968V25.4872C74.9968 25.3522 74.1228 25.8222 73.9538 26.0582ZM70.3898 28.2462H69.8198C69.8198 27.8762 70.3918 27.8092 70.3918 27.8092L70.3898 28.2462ZM66.5198 28.9462V29.5182H61.4078V28.6102C61.5428 28.2402 61.7778 28.2402 62.1138 28.2402H65.8468C66.6198 28.2402 66.5198 28.7112 66.5198 28.9462ZM72.4388 26.2892V29.5562H71.2958V26.6642C71.1137 26.7619 70.922 26.8407 70.7238 26.8992C70.3538 27.0342 69.2108 27.6052 69.2108 28.1772V28.9462H70.4888V29.5182H67.5968V28.8162C67.5931 28.4161 67.4326 28.0333 67.1496 27.7504C66.8666 27.4674 66.4839 27.3068 66.0838 27.3032H62.6838C62.4879 27.2747 62.2881 27.2934 62.1009 27.3577C61.9138 27.4221 61.7447 27.5302 61.6078 27.6732V25.2852C61.2857 25.4944 60.9819 25.7306 60.6998 25.9912C60.3638 26.2912 60.6998 26.4282 60.6998 26.4282V29.5892H59.5568V26.9332C59.2137 27.1915 58.8543 27.4273 58.4808 27.6392C58.2458 27.7742 58.3458 28.0092 58.6148 28.0092V30.3972C58.6237 30.5364 58.596 30.6754 58.5346 30.8006C58.4732 30.9258 58.3801 31.0328 58.2646 31.1109C58.1491 31.189 58.0151 31.2356 57.8761 31.246C57.737 31.2564 57.5976 31.2303 57.4718 31.1702C57.4718 31.1702 57.2368 31.1702 57.4718 31.4052C57.5652 31.5203 57.6829 31.6132 57.8166 31.6772C57.9503 31.7412 58.0966 31.7747 58.2448 31.7752C58.427 31.7794 58.6083 31.7467 58.7775 31.6789C58.9467 31.6111 59.1004 31.5096 59.2293 31.3807C59.3582 31.2518 59.4597 31.0981 59.5275 30.9289C59.5953 30.7597 59.628 30.5784 59.6238 30.3962H73.6808V25.3522C73.3377 25.6105 72.9783 25.8464 72.6048 26.0582C72.2048 26.1582 72.2048 26.2932 72.4368 26.2932" fill="white" fill-opacity="0.32"/>
</g>
<defs>
<clipPath id="clip0_937_4534">
<rect width="111" height="31.551" fill="white" transform="translate(0.586182 0.224609)"/>
</clipPath>
</defs>
</svg>
