<svg width="24" height="24" viewBox="0 0 24 24" fill="none" xmlns="http://www.w3.org/2000/svg">
<path fill-rule="evenodd" clip-rule="evenodd" d="M3 11.467C3 16.1433 6.79072 19.934 11.467 19.934C13.4448 19.934 15.2642 19.2559 16.7054 18.1195L20.0002 21.4142L21.4144 20L18.1196 16.7053C19.2559 15.2641 19.934 13.4448 19.934 11.467C19.934 6.79072 16.1433 3 11.467 3C6.79072 3 3 6.79072 3 11.467ZM5 11.467C5 7.89528 7.89528 5 11.467 5C15.0387 5 17.934 7.89528 17.934 11.467C17.934 15.0387 15.0387 17.934 11.467 17.934C7.89528 17.934 5 15.0387 5 11.467Z" fill="white"/>
</svg>
