<svg width="150" height="24" viewBox="0 0 150 24" fill="none" xmlns="http://www.w3.org/2000/svg">
<g clip-path="url(#clip0_937_4559)">
<path d="M0.754534 13.8377C0.993603 15.2938 1.5272 16.6859 2.32259 17.9287C5.18459 17.1287 7.71259 15.6177 8.59859 12.2597C9.58259 8.55273 8.46559 4.67774 5.77059 2.61074C3.92406 3.782 2.4637 5.47154 1.5721 7.46818C0.680496 9.46482 0.397196 11.68 0.757585 13.8367M22.6575 10.1507C22.9013 11.5881 22.8595 13.0593 22.5346 14.4805C22.2097 15.9017 21.608 17.245 20.7639 18.4336C19.9198 19.6222 18.8498 20.6329 17.6151 21.408C16.3803 22.183 15.005 22.7073 13.5676 22.9507C11.5264 23.2969 9.42914 23.0652 7.51271 22.2821C5.59628 21.4989 3.93708 20.1953 2.72255 18.5187L20.7006 13.3757C20.9586 13.3057 20.8896 13.0617 20.6726 13.0617L13.1306 13.5707C13.7105 13.0779 14.1713 12.4601 14.4784 11.7637C14.7855 11.0672 14.9308 10.3103 14.9036 9.54974C14.7146 6.72873 11.8386 3.98573 6.51155 2.18373C7.55819 1.62372 8.69063 1.24151 9.86257 1.05273C11.2999 0.808984 12.7712 0.850763 14.1923 1.17568C15.6135 1.5006 16.9568 2.10229 18.1454 2.9464C19.334 3.79051 20.3448 4.86049 21.1198 6.09525C21.8949 7.33001 22.4191 8.70535 22.6626 10.1427V10.1527" fill="white" fill-opacity="0.32"/>
<path d="M84.4289 16.6096V12.7346H80.5539V16.6096H78.4219V7.3916H80.5509V11.0636H84.4329V7.3916H86.5759V16.6076L84.4289 16.6096Z" fill="white" fill-opacity="0.32"/>
<path d="M38.5404 7.3916V13.1586C38.5262 13.7191 38.6234 14.2769 38.8264 14.7996C38.9986 15.2235 39.269 15.6005 39.6154 15.8996C39.9774 16.197 40.3988 16.4135 40.8514 16.5346C41.3824 16.6735 41.9296 16.7407 42.4784 16.7346C43.0205 16.7437 43.5611 16.6764 44.0844 16.5346C44.5235 16.4204 44.9299 16.2054 45.2714 15.9066C45.6005 15.6013 45.8559 15.2251 46.0184 14.8066C46.2075 14.2783 46.2974 13.7196 46.2834 13.1586V7.3916H44.2834V13.1026C44.3115 13.6027 44.1577 14.0961 43.8504 14.4916C43.4735 14.832 42.9841 15.021 42.4762 15.0223C41.9684 15.0236 41.478 14.8371 41.0994 14.4986C40.7871 14.1054 40.6304 13.6109 40.6594 13.1096V7.3916H38.5404Z" fill="white" fill-opacity="0.32"/>
<path d="M32.3927 16.6057V9.10572H29.8867V7.38672H37.0427V8.21772C37.0409 8.45585 36.9455 8.68371 36.7771 8.85209C36.6087 9.02048 36.3808 9.11589 36.1427 9.11772H34.5087V16.6177C34.5157 16.6057 32.3927 16.6057 32.3927 16.6057Z" fill="white" fill-opacity="0.32"/>
<path d="M66.6133 7.3916H68.7422V16.6076H66.6133V7.3916Z" fill="white" fill-opacity="0.32"/>
<path d="M59.5389 12.3059L59.6089 12.3969L62.3318 15.8969C62.5018 16.116 62.7199 16.2931 62.9692 16.4145C63.2186 16.5359 63.4926 16.5983 63.7699 16.5969H65.4698L61.5699 11.6399L61.5139 11.5699L61.5699 11.4999L64.7699 7.38086H62.5639L59.6219 11.3539L59.5519 11.4539V7.38386H57.4219V16.6189H59.5509V12.4789L59.5369 12.3039L59.5389 12.3059Z" fill="white" fill-opacity="0.32"/>
<path d="M50.3527 11.6112H51.5956C51.7818 11.623 51.9685 11.5962 52.1438 11.5325C52.3191 11.4688 52.4795 11.3697 52.6147 11.2412C52.8401 10.9856 52.9577 10.6526 52.9427 10.3122C52.9521 9.9707 52.8409 9.63682 52.6287 9.36917C52.4927 9.23962 52.3313 9.13982 52.1547 9.07611C51.978 9.01241 51.79 8.98621 51.6027 8.99917H50.3597L50.3527 11.6112ZM54.6257 16.6112C54.313 16.6116 54.0055 16.5316 53.7328 16.3787C53.4601 16.2257 53.2313 16.0052 53.0687 15.7382L51.4067 13.0012H50.3527V16.6192H48.2227V7.39416H52.0226C52.8515 7.34127 53.6683 7.61435 54.2986 8.15517C54.5685 8.41923 54.7793 8.73747 54.9172 9.08893C55.0551 9.44038 55.117 9.81707 55.0987 10.1942C55.0902 10.6477 54.9755 11.093 54.7637 11.4942C54.4941 11.9595 54.0761 12.3208 53.5767 12.5202L53.4507 12.5762L56.0337 16.6112H54.6257Z" fill="white" fill-opacity="0.32"/>
<path d="M70.5078 16.2187V14.4527C71.2736 14.8324 72.1116 15.0442 72.9658 15.0737C74.0058 15.0737 74.5298 14.7177 74.5298 14.0337C74.5298 13.2337 73.8248 13.1397 72.4078 12.5397C71.8522 12.361 71.3692 12.0075 71.0308 11.5319C70.6923 11.0564 70.5166 10.4842 70.5298 9.90072C70.5298 8.10072 71.9048 7.26172 73.7898 7.26172C74.5894 7.26562 75.3827 7.40492 76.1358 7.67372V9.39772C75.4427 9.08892 74.6945 8.92263 73.9358 8.90872C72.9928 8.90872 72.5608 9.24372 72.5608 9.85172C72.5608 10.4597 73.0848 10.6687 74.0268 11.0317C75.2418 11.6387 76.6588 11.9047 76.6588 13.9847C76.6588 15.7847 75.2278 16.7637 73.3148 16.7637C72.3538 16.7546 71.4025 16.5699 70.5078 16.2187Z" fill="white" fill-opacity="0.32"/>
<path d="M136.296 16.6057V7.38672H142.063V8.22472C142.062 8.45956 141.968 8.68441 141.802 8.85048C141.636 9.01654 141.411 9.11041 141.176 9.11172H138.423V11.0947H141.516V12.6377H138.423V14.8927H142.06V16.6187L136.293 16.6117L136.296 16.6057Z" fill="white" fill-opacity="0.32"/>
<path d="M115.23 16.6057V7.38672H116.263C116.555 7.38672 116.835 7.50261 117.041 7.7089C117.248 7.91519 117.363 8.19498 117.363 8.48672V14.9587H120.763V16.6187L115.23 16.6057Z" fill="white" fill-opacity="0.32"/>
<path d="M102.051 16.6096V7.3916H104.184V16.6006L102.055 16.6076L102.051 16.6096Z" fill="white" fill-opacity="0.32"/>
<path d="M108.253 11.611H109.496C109.682 11.6218 109.867 11.5953 110.042 11.5329C110.217 11.4706 110.378 11.3737 110.515 11.248C110.74 10.9924 110.858 10.6594 110.843 10.319C110.854 9.97615 110.74 9.64104 110.522 9.376C110.386 9.24646 110.225 9.14665 110.048 9.08295C109.871 9.01925 109.683 8.99304 109.496 9.006H108.253V11.606V11.611ZM112.519 16.611C112.206 16.6115 111.899 16.5314 111.626 16.3785C111.354 16.2256 111.125 16.005 110.962 15.738L109.307 13.008H108.253V16.624H106.121V7.401H109.912C110.741 7.3481 111.558 7.62119 112.188 8.162C112.458 8.42606 112.669 8.74431 112.807 9.09576C112.945 9.44722 113.006 9.82391 112.988 10.201C112.98 10.6555 112.863 11.1015 112.646 11.501C112.377 11.9663 111.959 12.3276 111.459 12.527L111.333 12.583L113.923 16.618L112.523 16.611H112.519Z" fill="white" fill-opacity="0.32"/>
<path d="M94.7216 13.2447L95.5596 10.9127C95.7476 10.3887 95.9296 9.83772 96.0486 9.43272H96.0836C96.1836 9.85872 96.3836 10.3757 96.5656 10.9127L97.3755 13.2447H94.7216ZM97.3606 7.38672H94.9036L91.4336 16.6097H92.9695C93.1578 16.6123 93.3419 16.5539 93.4942 16.4432C93.6465 16.3326 93.7589 16.1756 93.8146 15.9957L94.1706 14.9137H97.9056L98.4576 16.6137H100.769L97.3606 7.38672Z" fill="white" fill-opacity="0.32"/>
<path d="M143.781 16.2187V14.4527C144.547 14.8324 145.385 15.0442 146.239 15.0737C147.279 15.0737 147.803 14.7177 147.803 14.0337C147.803 13.2337 147.098 13.1397 145.681 12.5397C145.125 12.3615 144.641 12.0084 144.301 11.5329C143.961 11.0574 143.784 10.4849 143.796 9.90072C143.796 8.10072 145.171 7.26172 147.056 7.26172C147.858 7.26659 148.653 7.40585 149.409 7.67372V9.39772C148.716 9.08892 147.968 8.92263 147.209 8.90872C146.266 8.90872 145.834 9.24372 145.834 9.85172C145.834 10.4597 146.358 10.6687 147.3 11.0317C148.515 11.6387 149.932 11.9047 149.932 13.9847C149.932 15.7847 148.501 16.7637 146.588 16.7637C145.627 16.7546 144.676 16.5699 143.781 16.2187Z" fill="white" fill-opacity="0.32"/>
<path d="M126.221 7.39372H127.548C127.855 7.39332 128.158 7.47056 128.428 7.61827C128.698 7.76599 128.926 7.97939 129.091 8.23872L131.66 12.3717C131.966 12.8506 132.244 13.3471 132.491 13.8587H132.533C132.498 13.4467 132.491 12.8677 132.491 12.4587V7.38672H134.355V16.6057H132.016L128.887 11.6187C128.587 11.1647 128.301 10.6137 128.07 10.2017H128.04C128.061 10.6017 128.082 11.0677 128.082 11.5217V16.6037H126.211L126.225 7.38772L126.221 7.39372Z" fill="white" fill-opacity="0.32"/>
<path d="M122.129 16.6096V7.3916H124.258V16.6076L122.129 16.6096Z" fill="white" fill-opacity="0.32"/>
</g>
<defs>
<clipPath id="clip0_937_4559">
<rect width="149.33" height="22.209" fill="white" transform="translate(0.601562 0.895508)"/>
</clipPath>
</defs>
</svg>
