<svg width="109" height="20" viewBox="0 0 109 20" fill="none" xmlns="http://www.w3.org/2000/svg">
<g clip-path="url(#clip0_937_4577)">
<path d="M108.873 17.5914V0.367432H89.6618C89.6618 1.29243 89.6618 2.21743 89.6348 3.11543C92.0861 2.42381 94.6896 2.49334 97.1005 3.31483C99.5114 4.13631 101.616 5.67097 103.135 7.71543C104.419 9.43692 105.235 11.4623 105.502 13.5934C105.638 14.955 105.584 16.3291 105.339 17.6754C105.208 18.3326 105.026 18.9786 104.795 19.6074H108.849C108.9 18.9254 108.873 18.2674 108.873 17.5914Z" fill="white" fill-opacity="0.32"/>
<path d="M89.6621 15.36V16.421C89.8095 16.3858 89.9483 16.3212 90.0701 16.231C91.1955 15.6623 92.2464 14.957 93.1991 14.131C94.2056 13.2202 95.0842 12.1774 95.8111 11.031C96.5875 9.79751 97.0198 8.37881 97.0631 6.92198C97.0545 6.30006 96.9155 5.68686 96.6551 5.12198C96.382 4.56636 95.9847 4.08102 95.4939 3.70352C95.0032 3.32602 94.4322 3.06648 93.8251 2.94498C92.9525 2.77696 92.0551 2.78614 91.1861 2.97198C91.4657 2.99631 91.7405 3.06028 92.0021 3.16198C92.4573 3.12051 92.9162 3.14816 93.3631 3.24398C93.163 3.288 92.9706 3.36146 92.7921 3.46198C92.9821 3.48898 93.0641 3.59798 93.2551 3.67998C93.4793 3.64195 93.6985 3.5782 93.9081 3.48998C94.0171 3.46298 94.0981 3.38098 94.2351 3.46298C94.4631 3.54994 94.6819 3.65948 94.8881 3.78998C94.9631 3.81629 95.029 3.86347 95.0781 3.92598C94.6661 3.96266 94.2569 4.02613 93.8531 4.11598C93.9598 4.22817 94.0599 4.34636 94.1531 4.46998C94.6479 4.37523 95.1495 4.32072 95.6531 4.30698C95.8713 4.50154 96.0552 4.73141 96.1971 4.98698C95.6169 4.95518 95.0351 4.9642 94.4561 5.01398C94.5381 5.17698 94.5651 5.31398 94.6471 5.50398C95.2751 5.48519 95.9035 5.52167 96.5251 5.61298C96.639 5.89141 96.7124 6.18472 96.7431 6.48398C96.0631 6.37498 95.4101 6.29398 94.7291 6.23898C94.7331 6.457 94.7241 6.67505 94.7021 6.89198C95.4086 6.96777 96.1099 7.08599 96.8021 7.24599C96.7878 7.58691 96.733 7.92494 96.6391 8.25299C95.9321 8.03499 95.2511 7.84499 94.5391 7.68198C94.4846 8.00326 94.3835 8.31487 94.2391 8.60699C94.957 8.82413 95.6502 9.11606 96.3071 9.47798C96.2195 9.76668 96.0912 10.0414 95.9261 10.294C95.8663 10.2519 95.8027 10.2154 95.7361 10.185C95.1451 9.85234 94.5366 9.5519 93.9131 9.28498C93.6951 9.69298 93.4231 10.101 93.1781 10.485C93.8311 10.893 94.4301 11.301 95.0561 11.764C94.8661 12.009 94.7021 12.254 94.4851 12.499L92.6851 11.03C92.6031 11.057 92.5491 11.166 92.4401 11.275C92.1649 11.5906 91.8545 11.8737 91.5151 12.119C91.4881 12.173 91.5421 12.201 91.5691 12.228C92.0861 12.745 92.5761 13.344 93.0691 13.888C92.9049 14.0795 92.7123 14.2447 92.4981 14.378L92.4161 14.296C91.9808 13.752 91.5454 13.1807 91.1101 12.582C91.0831 12.555 91.0281 12.473 91.0011 12.528C90.6072 12.8344 90.1885 13.1073 89.7491 13.344V13.971C89.7324 14.0446 89.7419 14.1217 89.7761 14.189C90.0211 14.679 90.2661 15.196 90.5111 15.689C90.3481 15.771 90.2111 15.852 90.0211 15.934C89.8743 15.7631 89.7549 15.5705 89.6671 15.363L89.6621 15.36Z" fill="white" fill-opacity="0.32"/>
<path d="M96.7903 14.2993C97.6662 13.2999 98.382 12.1709 98.9124 10.9523C99.4334 9.79298 99.6403 8.51695 99.5124 7.25234C99.3339 6.08857 98.7451 5.02699 97.8524 4.25934C97.4212 3.83923 96.9 3.52289 96.3283 3.33434C95.628 3.07851 94.8951 2.92264 94.1513 2.87134C94.3693 2.95334 94.5593 3.00734 94.7773 3.08934C95.2529 3.14923 95.7192 3.26814 96.1653 3.44334C96.3044 3.47876 96.4344 3.54355 96.5464 3.63334C96.2831 3.62827 96.0197 3.63728 95.7574 3.66034C95.7626 3.69035 95.7753 3.71855 95.7944 3.74232C95.8135 3.76609 95.8382 3.78467 95.8663 3.79634L96.1924 4.12334C96.5734 4.12334 96.9273 4.12334 97.3083 4.15034C97.3465 4.1518 97.3837 4.16247 97.4167 4.18146C97.4498 4.20044 97.4778 4.22716 97.4984 4.25934C97.8231 4.48445 98.1003 4.77122 98.3144 5.10334C98.2054 5.07634 98.1243 5.07634 97.9873 5.04934C97.5793 4.96734 97.1434 4.94034 96.7354 4.85934C96.7959 5.06355 96.8686 5.26391 96.9533 5.45934C97.5684 5.53532 98.1775 5.6536 98.7763 5.81334C98.9439 6.18895 99.0716 6.58109 99.1573 6.98334C99.1303 7.03734 99.0484 6.98334 98.9944 6.98334C98.3684 6.79334 97.7703 6.60234 97.1163 6.46634C97.1163 6.73834 97.1433 6.98334 97.1433 7.22834C97.8622 7.41571 98.5645 7.66153 99.2433 7.96334C99.2402 8.367 99.1946 8.7692 99.1074 9.16334C98.9619 9.12278 98.824 9.05859 98.6993 8.97334C98.1548 8.68935 97.5911 8.44375 97.0124 8.23834C96.9361 8.64948 96.8174 9.05162 96.6584 9.43834C96.6314 9.49234 96.6854 9.54734 96.7404 9.54734C97.3934 9.90134 98.0463 10.2543 98.6723 10.6353C98.5366 10.9838 98.3728 11.3205 98.1823 11.6423C97.986 11.5343 97.7955 11.4161 97.6114 11.2883C97.1484 11.0163 96.7113 10.6883 96.1964 10.4443C95.965 10.9583 95.6726 11.4424 95.3253 11.8863C95.4376 11.993 95.5557 12.0931 95.6794 12.1863C96.1694 12.5673 96.6314 12.9753 97.0944 13.3863C96.8912 13.6859 96.6638 13.9681 96.4143 14.2303C95.8758 13.6698 95.3034 13.1428 94.7003 12.6523C94.4553 12.9523 94.1563 13.2523 93.9113 13.5233C93.7135 13.7438 93.4948 13.9448 93.2584 14.1233C93.2584 14.2053 93.3673 14.2863 93.4483 14.3683C93.8563 14.8583 94.3193 15.3753 94.7003 15.8923C94.4673 16.0976 94.2218 16.2883 93.9653 16.4633C93.4753 15.8633 93.0134 15.2633 92.5504 14.6633C91.9319 15.1693 91.2669 15.6157 90.5644 15.9963C90.4824 16.0233 90.5643 16.1053 90.5913 16.1863C90.9453 16.8123 91.2983 17.4103 91.6253 18.0363C91.4343 18.1183 91.2714 18.2263 91.0814 18.3083C90.7274 17.6553 90.3463 17.0293 90.0473 16.3493C89.8685 16.4054 89.6953 16.4784 89.5303 16.5673V19.2883C90.1032 19.0991 90.6663 18.8811 91.2173 18.6353C93.3785 17.6309 95.2851 16.1519 96.7953 14.3083L96.7903 14.2993ZM89.4434 3.25134C89.4974 3.27834 89.5794 3.27834 89.6334 3.30534V3.27834C89.5726 3.25617 89.5079 3.24697 89.4434 3.25134Z" fill="white" fill-opacity="0.32"/>
<path d="M99.6074 14.7898C100.511 13.4962 101.146 12.0338 101.472 10.4898C101.739 9.08335 101.53 7.62804 100.877 6.35383C100.577 5.79926 100.195 5.29349 99.7424 4.85383C99.2428 4.40106 98.6538 4.05803 98.0134 3.84683C97.8244 3.79283 97.6624 3.71083 97.5004 3.68383C97.7346 3.83241 97.9522 4.00574 98.1494 4.20083C98.3384 4.30983 98.5544 4.22783 98.7164 4.33683C99.2745 4.64101 99.7552 5.06937 100.121 5.58883C99.7599 5.45491 99.3897 5.34566 99.0134 5.26183C99.1466 5.49877 99.2639 5.74431 99.3644 5.99683C99.7694 6.10583 100.175 6.24183 100.553 6.37783C100.661 6.40483 100.661 6.51383 100.742 6.59583C100.946 6.99742 101.083 7.42938 101.147 7.87483C100.688 7.62983 100.228 7.43983 99.7424 7.22183C99.7694 7.52183 99.7964 7.84783 99.7964 8.14683C100.316 8.36057 100.814 8.62484 101.282 8.93583C101.292 9.41114 101.247 9.88599 101.147 10.3508C100.667 9.98286 100.151 9.66393 99.6074 9.39883C99.4957 9.91055 99.3422 10.4122 99.1484 10.8988C99.6614 11.2528 100.175 11.6338 100.634 12.0148C100.505 12.409 100.343 12.7914 100.148 13.1578C99.7434 12.8578 99.3644 12.5048 98.9594 12.2058C98.8514 12.1518 98.7704 12.0158 98.6084 11.9608C98.3739 12.4174 98.1027 12.8542 97.7974 13.2668C97.7164 13.4028 97.6084 13.5118 97.5274 13.6478C98.0134 14.1378 98.5004 14.5478 98.9594 15.0628C98.7379 15.3799 98.494 15.6807 98.2294 15.9628C97.7704 15.4728 97.3644 14.9828 96.8514 14.5208C96.3493 15.1445 95.7884 15.7185 95.1764 16.2348C95.6201 16.7276 96.0352 17.2454 96.4194 17.7858C96.1494 18.0308 95.8794 18.2208 95.6354 18.4388C95.2304 17.9218 94.8244 17.3778 94.4194 16.8608C93.6625 17.4521 92.8581 17.9799 92.0144 18.4388C92.2574 18.8468 92.5004 19.2278 92.7144 19.6088H94.6874C96.615 18.3251 98.284 16.6904 99.6074 14.7898ZM90.6074 3.27983C90.4184 3.44283 90.2564 3.55183 90.0674 3.71483C90.1754 3.74183 90.2834 3.79683 90.4184 3.82383C90.7013 3.61182 90.9995 3.42097 91.3104 3.25283C91.6048 3.26748 91.8959 3.32232 92.1754 3.41583C91.7664 3.57856 91.3691 3.76935 90.9864 3.98683C90.9594 4.01383 90.8784 4.01383 90.8784 4.09583C90.9673 4.14845 91.0489 4.21231 91.1214 4.28583C91.6369 4.00388 92.1801 3.776 92.7424 3.60583C92.9486 3.69369 93.1399 3.81312 93.3094 3.95983C92.6542 4.10602 92.0123 4.30672 91.3904 4.55983C91.4595 4.65585 91.5227 4.75604 91.5794 4.85983C92.2554 4.64183 92.9574 4.45183 93.6604 4.28883L93.9844 4.77883C93.2185 4.8572 92.4597 4.99359 91.7144 5.18683C91.7414 5.29583 91.7954 5.40483 91.8224 5.54083C92.599 5.39657 93.3845 5.30569 94.1734 5.26883C94.253 5.47702 94.2897 5.69912 94.2814 5.92183C93.4704 5.89903 92.6587 5.91705 91.8494 5.97583C91.8494 6.16583 91.8224 6.30283 91.8224 6.46583C92.634 6.43878 93.4465 6.46617 94.2544 6.54783C94.2133 6.7955 94.1593 7.04084 94.0924 7.28283C93.2989 7.12052 92.4955 7.01128 91.6874 6.95583C91.6534 7.16382 91.5897 7.36587 91.4984 7.55583C92.2826 7.6937 93.0525 7.90324 93.7984 8.18183C93.7095 8.39565 93.6094 8.60461 93.4984 8.80783C93.3877 8.76933 93.2795 8.7239 93.1744 8.67183C92.5664 8.40932 91.9437 8.18227 91.3094 7.99183C91.1737 8.27864 91.0109 8.55187 90.8234 8.80783C91.4994 9.16183 92.1234 9.54283 92.7694 9.92383C92.8234 9.95083 92.7424 10.0328 92.7424 10.0598C92.6402 10.2079 92.5226 10.3447 92.3914 10.4678C91.7694 10.0048 91.2024 9.56783 90.5534 9.16183C90.3338 9.41073 90.1001 9.64678 89.8534 9.86883C89.7724 9.89583 89.7724 10.0048 89.8534 10.0588C90.3394 10.5488 90.7994 11.0658 91.2584 11.5588C91.1174 11.6916 90.9637 11.8102 90.7994 11.9128C90.4484 11.5048 90.1504 11.0688 89.7724 10.6608V13.0278C89.7994 13.0008 89.8804 12.9738 89.9614 12.9188C91.0547 12.214 92.0377 11.3514 92.8784 10.3588C93.6725 9.44319 94.2373 8.35183 94.5264 7.17483C94.7601 6.33005 94.6736 5.42872 94.2834 4.64383C93.9446 4.06988 93.4205 3.62834 92.7974 3.39183C91.9867 3.0852 91.1047 3.01923 90.2574 3.20183C90.1162 3.23694 89.9699 3.24609 89.8254 3.22883V3.33783C90.0144 3.36483 90.3114 3.28383 90.6094 3.28383L90.6074 3.27983ZM33.6164 5.53783V15.6588H36.5894V5.53783H33.6164ZM80.6644 6.51783C79.8579 6.055 78.9666 5.75881 78.0434 5.64683C77.0742 5.54208 76.0988 5.50566 75.1244 5.53783H71.4244C71.4244 8.91183 71.4244 12.2858 71.3974 15.6878H75.1534C76.1734 15.7247 77.1947 15.6792 78.2074 15.5518C79.2219 15.4177 80.1874 15.0343 81.0174 14.4358C81.5186 14.0633 81.9258 13.5787 82.2064 13.0208C82.5402 12.2866 82.7062 11.4872 82.6924 10.6808C82.7357 9.82815 82.5688 8.97789 82.2064 8.20483C81.8661 7.506 81.3314 6.92023 80.6664 6.51783H80.6644ZM78.9894 12.5038C78.4581 12.9945 77.7664 13.2749 77.0434 13.2928C76.5034 13.3468 75.9354 13.3198 75.3684 13.3198C75.0174 13.3198 74.6684 13.3468 74.3414 13.3198V7.85083C75.0984 7.85083 75.8814 7.85083 76.6654 7.82383C77.3445 7.82469 78.0129 7.99299 78.6114 8.31383C78.9766 8.53631 79.2608 8.86996 79.4224 9.26583C79.5968 9.71663 79.6794 10.1977 79.6654 10.6808C79.6637 11.3497 79.4246 11.996 78.9894 12.5038ZM41.5614 7.85083L45.2094 7.87783V15.6588H48.1284V7.87783H51.7764V5.53783H41.5344C41.5344 6.29983 41.5344 7.08883 41.5614 7.85083ZM24.6984 9.18383C24.6984 9.97283 24.7254 10.7348 24.6984 11.4968C24.0764 10.7898 23.4284 10.1638 22.7794 9.45583C22.1304 8.80283 21.5094 8.12283 20.8334 7.44183C20.2664 6.78883 19.6444 6.21783 19.0494 5.59183C19.0224 5.56483 18.9684 5.48283 18.9144 5.50983C18.1034 5.50983 17.2664 5.53683 16.4554 5.50983C16.4284 6.38083 16.4284 7.27883 16.4284 8.14883C16.4284 9.72683 16.4284 11.3048 16.4014 12.8558C16.4014 13.7558 16.3744 14.7058 16.4014 15.6038H19.1304V9.42883C21.1574 11.4968 23.1564 13.5648 25.2104 15.6598H27.3724V5.53783H24.6984V9.18383ZM8.18742 11.1158C8.22624 11.5449 8.15176 11.9766 7.97142 12.3678C7.79072 12.7351 7.48359 13.0248 7.10642 13.1838C6.59607 13.3707 6.05588 13.4629 5.51242 13.4558C4.84313 13.4893 4.18325 13.2873 3.64742 12.8848C3.23887 12.4401 3.01627 11.8557 3.02542 11.2518V5.53783H0.053421V11.4158C0.0354676 12.4229 0.370102 13.4045 0.999421 14.1908C1.62929 14.9074 2.47215 15.4033 3.40442 15.6058C4.37876 15.828 5.3811 15.9015 6.37742 15.8238C7.48954 15.7756 8.56604 15.4174 9.48542 14.7898C10.2068 14.2277 10.7048 13.4274 10.8904 12.5318C11.0124 12.0059 11.0668 11.4665 11.0524 10.9268V5.53783H8.18742V11.1158Z" fill="white" fill-opacity="0.32"/>
<path d="M100.029 17.7279C101.33 16.2307 102.286 14.4657 102.829 12.5579C103.142 11.412 103.17 10.2072 102.911 9.04792C102.645 7.98201 102.131 6.99393 101.411 6.16392C101.248 5.94592 100.976 5.94592 100.758 5.80992C100.867 6.05492 101.03 6.27292 100.976 6.46292C101.003 6.48992 101.003 6.57192 101.085 6.57192C101.254 6.64259 101.418 6.72444 101.575 6.81692C101.629 6.84392 101.684 6.95292 101.738 7.03492C102.036 7.53683 102.265 8.07672 102.418 8.63992C102.146 8.47692 101.847 8.31292 101.547 8.14992C101.629 8.50392 101.601 8.88492 101.656 9.21092C102.01 9.45592 102.336 9.70092 102.663 9.94592C102.691 10.4916 102.664 11.0387 102.581 11.5789C102.309 11.3339 102.037 11.0889 101.765 10.8719C101.683 10.8179 101.602 10.7089 101.493 10.6819C101.393 11.2223 101.238 11.7511 101.03 12.2599C101.016 12.2817 101.011 12.308 101.016 12.3334C101.022 12.3587 101.036 12.3811 101.057 12.3959C101.448 12.7194 101.821 13.0646 102.173 13.4299C102.053 13.8503 101.879 14.2535 101.656 14.6299L100.921 13.8949C100.758 13.7859 100.676 13.6229 100.513 13.5409C100.426 13.7519 100.316 13.953 100.186 14.1409C99.9272 14.5728 99.6455 14.9907 99.3424 15.3929C99.6694 15.7469 99.9684 16.0999 100.267 16.4269C100.321 16.4809 100.457 16.5359 100.457 16.6719C100.346 16.8552 100.218 17.0282 100.076 17.1889C99.971 17.3436 99.8425 17.4812 99.6954 17.5969C99.3414 17.1889 98.9604 16.7809 98.6074 16.3449C98.0495 17.0012 97.4482 17.6193 96.8074 18.1949C97.1614 18.6299 97.5144 19.0659 97.8414 19.5279H98.2764C98.8908 18.9615 99.4724 18.3605 100.018 17.7279H100.029ZM59.2134 13.3739V11.6329H64.7644V9.48292C62.8864 9.48292 61.0644 9.50992 59.2134 9.48292V7.79592H65.7444V5.53792H56.3024C56.3024 8.91192 56.3024 12.2859 56.2754 15.6379H65.7754V13.3749C63.5944 13.3749 61.3904 13.4009 59.2134 13.3739ZM89.9884 8.99292C89.8626 8.94542 89.7435 8.88153 89.6344 8.80292C89.6074 9.12992 89.6344 9.45592 89.6344 9.78292C89.8244 9.67392 89.9064 9.51092 90.0694 9.37492C90.6557 8.80897 91.0947 8.10831 91.3484 7.33392C91.6255 6.63283 91.6158 5.85092 91.3214 5.15692C91.147 4.84394 90.9006 4.57701 90.6026 4.37824C90.3045 4.17947 89.9633 4.05458 89.6074 4.01392C89.6035 4.18668 89.6125 4.3595 89.6344 4.53092C89.7164 4.50392 89.7974 4.39492 89.9064 4.34092C90.0337 4.37225 90.1538 4.42757 90.2604 4.50392C90.2604 4.55792 90.1784 4.55792 90.1514 4.61292C89.9821 4.7029 89.8185 4.80309 89.6614 4.91292V5.23992C89.9614 5.04992 90.3144 4.88592 90.6134 4.69592C90.7017 4.7608 90.7837 4.83379 90.8584 4.91392C90.4504 5.07692 90.0424 5.26792 89.6584 5.45792V5.78492C90.1156 5.5597 90.5889 5.36884 91.0744 5.21392C91.1154 5.30264 91.1518 5.39343 91.1834 5.48592C90.6708 5.6079 90.1691 5.77178 89.6834 5.97592V6.24792C90.1992 6.04534 90.7384 5.90827 91.2884 5.83992C91.312 5.95635 91.3211 6.07525 91.3154 6.19392C90.7642 6.22012 90.217 6.30221 89.6824 6.43892V6.79292C90.2048 6.71602 90.7324 6.67958 91.2604 6.68392C91.2403 6.82375 91.2037 6.9607 91.1514 7.09192C90.6523 7.05534 90.1515 7.04633 89.6514 7.06492V7.44592C90.0736 7.47122 90.4927 7.53481 90.9034 7.63592C90.8624 7.77286 90.7981 7.90174 90.7134 8.01692C90.3594 7.93492 89.9784 7.79892 89.6254 7.74492V8.47992C89.8232 8.55406 90.0142 8.64507 90.1964 8.75192C90.141 8.84746 90.0669 8.9308 89.9784 8.99692L89.9884 8.99292Z" fill="white" fill-opacity="0.32"/>
<path d="M104.084 10.3814C103.888 9.20547 103.359 8.11034 102.56 7.22537C102.451 7.11637 102.37 6.95337 102.206 6.95337C102.226 7.0729 102.253 7.19111 102.288 7.30737C102.835 7.99046 103.259 8.76414 103.54 9.59337C103.35 9.48437 103.24 9.34837 103.05 9.23937C103.104 9.64737 103.186 10.0554 103.213 10.4634C103.464 10.6337 103.693 10.8353 103.893 11.0634C103.943 11.6801 103.925 12.3006 103.839 12.9134C103.567 12.6414 103.349 12.3424 103.077 12.0974C102.965 12.7101 102.801 13.3123 102.587 13.8974C102.882 14.2232 103.155 14.5687 103.403 14.9314C103.273 15.3692 103.09 15.7896 102.859 16.1834C102.587 15.8294 102.315 15.4484 102.043 15.1224C101.658 15.8281 101.231 16.5097 100.764 17.1634C101.086 17.5283 101.378 17.9197 101.635 18.3334C101.385 18.6861 101.112 19.0225 100.819 19.3404C100.547 18.9324 100.248 18.5244 99.9478 18.1404C99.8658 18.1674 99.8119 18.3034 99.7029 18.4124C99.4309 18.7124 99.1589 19.0384 98.8869 19.2834C98.7472 19.3869 98.6194 19.5056 98.5059 19.6374H100.955C102.356 18.0913 103.373 16.2358 103.921 14.2224C104.259 12.9712 104.314 11.6607 104.084 10.3854V10.3814Z" fill="white" fill-opacity="0.32"/>
<path d="M104.873 14.1907C105.005 13.5188 105.042 12.8317 104.982 12.1497C104.907 11.526 104.732 10.9184 104.465 10.3497C104.45 10.2666 104.418 10.1876 104.372 10.1174C104.325 10.0472 104.264 9.98741 104.193 9.94165C104.281 10.3549 104.345 10.773 104.383 11.1937C104.41 11.2207 104.383 11.3297 104.437 11.3837C104.546 11.5467 104.655 11.6557 104.791 11.8467C104.815 12.4665 104.769 13.0869 104.655 13.6967C104.544 13.5964 104.451 13.4764 104.383 13.3427C104.356 13.3157 104.274 13.2337 104.274 13.3157C104.156 13.9434 103.992 14.5617 103.784 15.1656C103.92 15.4106 104.029 15.6286 104.165 15.8456C104.085 16.1721 103.976 16.4907 103.839 16.7976C103.792 16.9408 103.729 17.0778 103.649 17.2057C103.513 16.9877 103.404 16.7707 103.241 16.5527H103.214C102.856 17.2775 102.437 17.971 101.962 18.6257C102.125 18.9257 102.316 19.2256 102.506 19.5257H102.724C103.18 18.828 103.589 18.1007 103.948 17.3487C104.379 16.3366 104.69 15.2773 104.873 14.1926V14.1907ZM89.6622 19.4146C89.6578 19.4792 89.667 19.5439 89.6892 19.6047H91.8622C91.6992 19.3327 91.5622 19.0337 91.3722 18.7607C90.8282 19.0057 90.2292 19.2237 89.6582 19.4137L89.6622 19.4146ZM95.1862 19.4146C95.1322 19.4686 95.0502 19.5237 94.9682 19.6047H96.3832C96.2472 19.3597 96.0832 19.1147 95.9202 18.8697C95.7032 19.0337 95.4312 19.2516 95.1862 19.4146ZM105.336 16.0147C105.118 16.9947 104.901 17.9737 104.601 18.8987C104.547 18.9257 104.547 18.7896 104.519 18.7896C104.492 18.7077 104.437 18.7896 104.437 18.8167C104.328 19.0617 104.247 19.3067 104.11 19.5517H104.654C105.071 18.4138 105.328 17.2233 105.416 16.0147H105.336Z" fill="white" fill-opacity="0.32"/>
<path d="M105.362 13.5921C105.226 13.5651 105.253 13.7281 105.253 13.8101C105.22 14.0444 105.202 14.2805 105.199 14.5171C105.172 14.4901 105.145 14.4351 105.09 14.4081C104.984 15.0478 104.82 15.6765 104.6 16.2861C104.491 16.5311 104.79 16.7211 104.709 16.9661C104.546 17.3741 104.437 17.7821 104.246 18.1661C104.185 18.0102 104.103 17.8637 104.001 17.7311C103.729 18.2211 103.484 18.7381 103.185 19.2311C103.131 19.3671 102.995 19.4491 102.967 19.6121H103.919C104.42 18.6996 104.813 17.7317 105.089 16.7281C105.355 15.7055 105.448 14.6453 105.362 13.5921Z" fill="white" fill-opacity="0.32"/>
</g>
<defs>
<clipPath id="clip0_937_4577">
<rect width="108.826" height="19.265" fill="white" transform="translate(0.0527344 0.367432)"/>
</clipPath>
</defs>
</svg>
